STARTFONT 2.1
COMMENT
COMMENT Converted from OpenType font "BeVietnam-Regular.ttf" by "otf2bdf 3.0".
COMMENT
FONT -FreeType-Be Vietnam-Medium-R-Normal--19-140-100-100-P-93-ISO10646-1
SIZE 14 100 100
FONTBOUNDINGBOX 29 26 -7 -5
STARTPROPERTIES 19
FOUNDRY "FreeType"
FAMILY_NAME "Be Vietnam"
WEIGHT_NAME "Medium"
SLANT "R"
SETWIDTH_NAME "Normal"
ADD_STYLE_NAME ""
PIXEL_SIZE 19
POINT_SIZE 140
RESOLUTION_X 100
RESOLUTION_Y 100
SPACING "P"
AVERAGE_WIDTH 93
CHARSET_REGISTRY "ISO10646"
CHARSET_ENCODING "1"
FONT_ASCENT 22
FONT_DESCENT 5
COPYRIGHT "Copyright 2019 The Bevietnam Project Authors (https://github.com/bettergui/beVietnam)"
_OTF_FONTFILE "BeVietnam-Regular.ttf"
_OTF_PSNAME "BeVietnam-Regular"
ENDPROPERTIES
CHARS 445
STARTCHAR 000D
ENCODING 13
SWIDTH 565 0
DWIDTH 11 0
BBX 0 0 0 0
BITMAP
ENDCHAR
STARTCHAR 0020
ENCODING 32
SWIDTH 205 0
DWIDTH 4 0
BBX 0 0 0 0
BITMAP
ENDCHAR
STARTCHAR 0021
ENCODING 33
SWIDTH 205 0
DWIDTH 4 0
BBX 2 15 1 0
BITMAP
C0
C0
C0
C0
40
40
40
40
40
40
40
00
00
C0
C0
ENDCHAR
STARTCHAR 0022
ENCODING 34
SWIDTH 462 0
DWIDTH 9 0
BBX 6 5 2 10
BITMAP
44
88
88
CC
CC
ENDCHAR
STARTCHAR 0023
ENCODING 35
SWIDTH 874 0
DWIDTH 17 0
BBX 13 14 2 0
BITMAP
0420
0420
0C60
0C60
7FF8
0840
1840
18C0
18C0
FFF8
1080
3180
3180
2100
ENDCHAR
STARTCHAR 0024
ENCODING 36
SWIDTH 565 0
DWIDTH 11 0
BBX 9 17 1 -2
BITMAP
0800
0800
7F00
6B00
C980
C980
C800
7800
1F00
0980
0880
C880
C980
7B80
3E00
0800
0800
ENDCHAR
STARTCHAR 0025
ENCODING 37
SWIDTH 822 0
DWIDTH 16 0
BBX 14 14 1 0
BITMAP
7020
9060
8840
88C0
9080
7180
0100
0300
0200
063C
0464
0C64
0864
183C
ENDCHAR
STARTCHAR 0026
ENCODING 38
SWIDTH 617 0
DWIDTH 12 0
BBX 11 14 1 0
BITMAP
0E00
1F80
3180
3080
3000
1000
1800
3C40
66C0
C380
C180
C3C0
6640
3C60
ENDCHAR
STARTCHAR 0027
ENCODING 39
SWIDTH 257 0
DWIDTH 5 0
BBX 2 4 2 10
BITMAP
C0
C0
40
40
ENDCHAR
STARTCHAR 0028
ENCODING 40
SWIDTH 411 0
DWIDTH 8 0
BBX 5 19 2 -4
BITMAP
08
10
30
60
60
40
C0
C0
C0
C0
C0
C0
C0
40
60
20
30
10
08
ENDCHAR
STARTCHAR 0029
ENCODING 41
SWIDTH 462 0
DWIDTH 9 0
BBX 5 19 2 -4
BITMAP
C0
60
20
30
10
18
18
08
08
08
08
18
18
18
10
30
20
60
80
ENDCHAR
STARTCHAR 002A
ENCODING 42
SWIDTH 462 0
DWIDTH 9 0
BBX 6 7 2 8
BITMAP
30
A4
EC
30
EC
A4
30
ENDCHAR
STARTCHAR 002B
ENCODING 43
SWIDTH 565 0
DWIDTH 11 0
BBX 7 8 2 2
BITMAP
10
10
10
FE
FE
10
10
10
ENDCHAR
STARTCHAR 002C
ENCODING 44
SWIDTH 257 0
DWIDTH 5 0
BBX 3 5 1 -3
BITMAP
60
E0
20
20
40
ENDCHAR
STARTCHAR 002D
ENCODING 45
SWIDTH 565 0
DWIDTH 11 0
BBX 7 2 2 5
BITMAP
FE
FE
ENDCHAR
STARTCHAR 002E
ENCODING 46
SWIDTH 257 0
DWIDTH 5 0
BBX 2 2 2 0
BITMAP
C0
C0
ENDCHAR
STARTCHAR 002F
ENCODING 47
SWIDTH 462 0
DWIDTH 9 0
BBX 8 19 1 -3
BITMAP
01
03
03
02
06
06
04
0C
08
18
18
10
30
30
20
60
60
40
C0
ENDCHAR
STARTCHAR 0030
ENCODING 48
SWIDTH 565 0
DWIDTH 11 0
BBX 10 14 1 0
BITMAP
1E00
7F00
6180
C080
C0C0
C0C0
C0C0
C0C0
C0C0
C0C0
C080
6180
7380
3E00
ENDCHAR
STARTCHAR 0031
ENCODING 49
SWIDTH 462 0
DWIDTH 9 0
BBX 7 14 2 0
BITMAP
30
70
D0
90
10
10
10
10
10
10
10
10
FE
FE
ENDCHAR
STARTCHAR 0032
ENCODING 50
SWIDTH 565 0
DWIDTH 11 0
BBX 9 14 1 0
BITMAP
1E00
3F00
6180
4080
C080
0180
0180
0300
0600
0C00
1800
3000
FF80
FF80
ENDCHAR
STARTCHAR 0033
ENCODING 51
SWIDTH 565 0
DWIDTH 11 0
BBX 9 14 1 0
BITMAP
1E00
7F00
6180
0080
0080
0180
0F00
0F00
0180
0080
0080
C180
7380
3F00
ENDCHAR
STARTCHAR 0034
ENCODING 52
SWIDTH 565 0
DWIDTH 11 0
BBX 10 14 1 0
BITMAP
0300
0700
0F00
0B00
1B00
3300
2300
6300
C300
FFC0
FFC0
0300
0300
0300
ENDCHAR
STARTCHAR 0035
ENCODING 53
SWIDTH 565 0
DWIDTH 11 0
BBX 10 14 1 0
BITMAP
7F80
7F80
4000
4000
4000
5F00
6180
6080
00C0
00C0
C0C0
6180
7380
1E00
ENDCHAR
STARTCHAR 0036
ENCODING 54
SWIDTH 565 0
DWIDTH 11 0
BBX 9 14 1 0
BITMAP
0C00
0C00
1800
3000
3000
6E00
7F00
E180
C080
C080
C080
C180
6300
3E00
ENDCHAR
STARTCHAR 0037
ENCODING 55
SWIDTH 462 0
DWIDTH 9 0
BBX 8 14 1 0
BITMAP
FF
FF
03
03
06
06
04
0C
08
18
10
30
30
60
ENDCHAR
STARTCHAR 0038
ENCODING 56
SWIDTH 565 0
DWIDTH 11 0
BBX 10 14 1 0
BITMAP
1E00
3F00
6180
4080
4080
6180
3F00
7380
4080
C0C0
C0C0
C0C0
6180
3F00
ENDCHAR
STARTCHAR 0039
ENCODING 57
SWIDTH 565 0
DWIDTH 11 0
BBX 9 14 1 0
BITMAP
1E00
7F00
4180
C080
C080
C080
C180
7380
3D00
0300
0600
0600
0C00
1800
ENDCHAR
STARTCHAR 003A
ENCODING 58
SWIDTH 257 0
DWIDTH 5 0
BBX 3 10 1 0
BITMAP
E0
60
00
00
00
00
00
00
E0
60
ENDCHAR
STARTCHAR 003B
ENCODING 59
SWIDTH 308 0
DWIDTH 6 0
BBX 2 13 2 -3
BITMAP
C0
C0
00
00
00
00
00
00
C0
C0
40
40
80
ENDCHAR
STARTCHAR 003C
ENCODING 60
SWIDTH 565 0
DWIDTH 11 0
BBX 7 8 2 3
BITMAP
06
1C
70
C0
60
38
0E
02
ENDCHAR
STARTCHAR 003D
ENCODING 61
SWIDTH 668 0
DWIDTH 13 0
BBX 9 6 2 3
BITMAP
FF80
0000
0000
0000
FF80
FF80
ENDCHAR
STARTCHAR 003E
ENCODING 62
SWIDTH 565 0
DWIDTH 11 0
BBX 7 8 2 3
BITMAP
C0
70
1C
06
0E
38
E0
80
ENDCHAR
STARTCHAR 003F
ENCODING 63
SWIDTH 565 0
DWIDTH 11 0
BBX 9 14 1 0
BITMAP
1E00
7F00
6180
C180
C180
0180
0300
0600
0C00
0800
0000
0000
0800
0800
ENDCHAR
STARTCHAR 0040
ENCODING 64
SWIDTH 977 0
DWIDTH 19 0
BBX 17 17 1 -3
BITMAP
03E000
0FFC00
180600
300300
600100
43F180
463080
C43080
C43080
C43080
463180
43DB00
618400
200000
300000
1C0000
07FC00
ENDCHAR
STARTCHAR 0041
ENCODING 65
SWIDTH 668 0
DWIDTH 13 0
BBX 11 14 1 0
BITMAP
0400
0E00
0E00
0B00
1B00
1100
1180
3180
2080
7FC0
6040
4060
C060
C020
ENDCHAR
STARTCHAR 0042
ENCODING 66
SWIDTH 617 0
DWIDTH 12 0
BBX 10 14 1 0
BITMAP
FE00
FF80
C080
C0C0
C0C0
C080
FF00
FF80
C0C0
C040
C040
C0C0
C1C0
FF00
ENDCHAR
STARTCHAR 0043
ENCODING 67
SWIDTH 668 0
DWIDTH 13 0
BBX 12 14 1 0
BITMAP
0F00
3FC0
7060
6030
C030
C000
C000
C000
C000
C000
6030
6060
39C0
1F80
ENDCHAR
STARTCHAR 0044
ENCODING 68
SWIDTH 668 0
DWIDTH 13 0
BBX 11 14 1 0
BITMAP
FE00
FF80
C0C0
C060
C060
C020
C020
C020
C020
C060
C060
C0C0
FFC0
FF00
ENDCHAR
STARTCHAR 0045
ENCODING 69
SWIDTH 565 0
DWIDTH 11 0
BBX 9 14 1 0
BITMAP
FF80
FF80
C000
C000
C000
C000
FF00
FF00
C000
C000
C000
C000
FF80
FF80
ENDCHAR
STARTCHAR 0046
ENCODING 70
SWIDTH 514 0
DWIDTH 10 0
BBX 9 14 1 0
BITMAP
FF80
FF80
C000
C000
C000
C000
FF00
FF00
C000
C000
C000
C000
C000
C000
ENDCHAR
STARTCHAR 0047
ENCODING 71
SWIDTH 668 0
DWIDTH 13 0
BBX 12 14 1 0
BITMAP
0F00
3FC0
6060
6020
C000
C000
C000
C3F0
C030
C030
4030
6070
38F0
1FB0
ENDCHAR
STARTCHAR 0048
ENCODING 72
SWIDTH 668 0
DWIDTH 13 0
BBX 11 14 1 0
BITMAP
C060
C060
C060
C060
C060
C060
FFE0
FFE0
C060
C060
C060
C060
C060
C060
ENDCHAR
STARTCHAR 0049
ENCODING 73
SWIDTH 205 0
DWIDTH 4 0
BBX 1 14 2 0
BITMAP
80
80
80
80
80
80
80
80
80
80
80
80
80
80
ENDCHAR
STARTCHAR 004A
ENCODING 74
SWIDTH 308 0
DWIDTH 6 0
BBX 4 14 1 0
BITMAP
30
30
30
30
30
30
30
30
30
30
30
30
30
E0
ENDCHAR
STARTCHAR 004B
ENCODING 75
SWIDTH 617 0
DWIDTH 12 0
BBX 10 14 1 0
BITMAP
C1C0
C180
C300
C600
CC00
D800
F000
F800
CC00
C600
C600
C300
C180
C0C0
ENDCHAR
STARTCHAR 004C
ENCODING 76
SWIDTH 514 0
DWIDTH 10 0
BBX 8 14 1 0
BITMAP
C0
C0
C0
C0
C0
C0
C0
C0
C0
C0
C0
C0
FF
FF
ENDCHAR
STARTCHAR 004D
ENCODING 77
SWIDTH 822 0
DWIDTH 16 0
BBX 14 14 1 0
BITMAP
E01C
E01C
F03C
F03C
D86C
D86C
C84C
CCCC
CCCC
C48C
C78C
C78C
C30C
C30C
ENDCHAR
STARTCHAR 004E
ENCODING 78
SWIDTH 668 0
DWIDTH 13 0
BBX 11 14 1 0
BITMAP
C020
E020
F020
F020
D820
CC20
CC20
C620
C320
C320
C1A0
C0E0
C0E0
C060
ENDCHAR
STARTCHAR 004F
ENCODING 79
SWIDTH 720 0
DWIDTH 14 0
BBX 12 14 1 0
BITMAP
0F00
3FC0
7060
6030
C030
C030
C030
C030
C030
C030
6030
6060
39C0
1F80
ENDCHAR
STARTCHAR 0050
ENCODING 80
SWIDTH 565 0
DWIDTH 11 0
BBX 10 14 1 0
BITMAP
FC00
FF00
C180
C0C0
C0C0
C0C0
C0C0
C180
FF00
C000
C000
C000
C000
C000
ENDCHAR
STARTCHAR 0051
ENCODING 81
SWIDTH 720 0
DWIDTH 14 0
BBX 12 15 1 -1
BITMAP
0F00
3FC0
7060
6030
C030
C030
C030
C030
C030
C230
6130
61E0
39C0
1FE0
0020
ENDCHAR
STARTCHAR 0052
ENCODING 82
SWIDTH 565 0
DWIDTH 11 0
BBX 10 14 1 0
BITMAP
FC00
FF80
C180
C0C0
C0C0
C0C0
C180
FF80
FC00
C600
C300
C300
C180
C0C0
ENDCHAR
STARTCHAR 0053
ENCODING 83
SWIDTH 565 0
DWIDTH 11 0
BBX 10 14 1 0
BITMAP
1E00
7F00
6180
C080
C000
6000
7C00
0F00
0180
00C0
C0C0
C080
7380
3F00
ENDCHAR
STARTCHAR 0054
ENCODING 84
SWIDTH 565 0
DWIDTH 11 0
BBX 10 14 1 0
BITMAP
FFC0
FFC0
0C00
0C00
0C00
0C00
0C00
0C00
0C00
0C00
0C00
0C00
0C00
0C00
ENDCHAR
STARTCHAR 0055
ENCODING 85
SWIDTH 668 0
DWIDTH 13 0
BBX 11 14 1 0
BITMAP
C060
C060
C060
C060
C060
C060
C060
C060
C060
C060
4060
60C0
39C0
1F80
ENDCHAR
STARTCHAR 0056
ENCODING 86
SWIDTH 617 0
DWIDTH 12 0
BBX 12 14 0 0
BITMAP
C030
4030
6020
6060
2060
3040
30C0
10C0
1880
1980
0980
0F00
0F00
0700
ENDCHAR
STARTCHAR 0057
ENCODING 87
SWIDTH 977 0
DWIDTH 19 0
BBX 19 14 0 0
BITMAP
C04060
406060
60E040
60E040
60B0C0
21B0C0
319080
311980
331980
130980
1A0D00
1E0F00
0E0700
0C0600
ENDCHAR
STARTCHAR 0058
ENCODING 88
SWIDTH 617 0
DWIDTH 12 0
BBX 11 14 1 0
BITMAP
C060
40C0
60C0
3180
1300
1B00
0E00
0E00
1A00
1B00
3180
6080
60C0
C060
ENDCHAR
STARTCHAR 0059
ENCODING 89
SWIDTH 565 0
DWIDTH 11 0
BBX 10 14 1 0
BITMAP
C0C0
C0C0
6180
6180
3300
3300
1E00
1E00
0C00
0C00
0C00
0C00
0C00
0C00
ENDCHAR
STARTCHAR 005A
ENCODING 90
SWIDTH 565 0
DWIDTH 11 0
BBX 10 14 1 0
BITMAP
FFC0
FFC0
0180
0380
0300
0600
0C00
0C00
1800
3000
6000
6000
FFC0
FFC0
ENDCHAR
STARTCHAR 005B
ENCODING 91
SWIDTH 411 0
DWIDTH 8 0
BBX 5 20 2 -4
BITMAP
F8
80
80
80
80
80
80
80
80
80
80
80
80
80
80
80
80
80
F8
F8
ENDCHAR
STARTCHAR 005C
ENCODING 92
SWIDTH 462 0
DWIDTH 9 0
BBX 8 19 1 -3
BITMAP
80
C0
C0
40
60
60
20
30
30
10
18
08
0C
0C
04
06
06
02
03
ENDCHAR
STARTCHAR 005D
ENCODING 93
SWIDTH 411 0
DWIDTH 8 0
BBX 6 20 1 -4
BITMAP
FC
04
04
04
04
04
04
04
04
04
04
04
04
04
04
04
04
04
FC
FC
ENDCHAR
STARTCHAR 005E
ENCODING 94
SWIDTH 411 0
DWIDTH 8 0
BBX 6 4 1 11
BITMAP
30
78
CC
84
ENDCHAR
STARTCHAR 005F
ENCODING 95
SWIDTH 668 0
DWIDTH 13 0
BBX 10 1 2 0
BITMAP
FFC0
ENDCHAR
STARTCHAR 0060
ENCODING 96
SWIDTH 205 0
DWIDTH 4 0
BBX 3 4 1 12
BITMAP
80
C0
40
20
ENDCHAR
STARTCHAR 0061
ENCODING 97
SWIDTH 617 0
DWIDTH 12 0
BBX 10 11 1 0
BITMAP
0800
3EC0
61C0
C1C0
C0C0
C0C0
C0C0
C0C0
C1C0
72C0
3CC0
ENDCHAR
STARTCHAR 0062
ENCODING 98
SWIDTH 617 0
DWIDTH 12 0
BBX 10 15 1 0
BITMAP
C000
C000
C000
C000
C400
DF00
E180
E0C0
C0C0
C0C0
C0C0
C0C0
E0C0
D380
CF00
ENDCHAR
STARTCHAR 0063
ENCODING 99
SWIDTH 565 0
DWIDTH 11 0
BBX 9 10 1 1
BITMAP
3F00
6180
C180
C000
C000
C000
C080
4180
7300
3E00
ENDCHAR
STARTCHAR 0064
ENCODING 100
SWIDTH 617 0
DWIDTH 12 0
BBX 10 15 1 0
BITMAP
00C0
00C0
00C0
00C0
08C0
3EC0
61C0
C1C0
C0C0
C0C0
C0C0
C0C0
C1C0
72C0
3CC0
ENDCHAR
STARTCHAR 0065
ENCODING 101
SWIDTH 565 0
DWIDTH 11 0
BBX 9 10 1 1
BITMAP
3F00
6180
C180
C080
FF80
C000
C000
4180
7300
3E00
ENDCHAR
STARTCHAR 0066
ENCODING 102
SWIDTH 360 0
DWIDTH 7 0
BBX 5 14 1 0
BITMAP
38
60
60
60
F8
60
60
60
60
60
60
60
60
60
ENDCHAR
STARTCHAR 0067
ENCODING 103
SWIDTH 617 0
DWIDTH 12 0
BBX 10 15 1 -4
BITMAP
0800
3EC0
61C0
C1C0
C0C0
C0C0
C0C0
C0C0
61C0
7EC0
1CC0
00C0
0180
1380
1F00
ENDCHAR
STARTCHAR 0068
ENCODING 104
SWIDTH 565 0
DWIDTH 11 0
BBX 10 15 1 0
BITMAP
C000
C000
C000
C000
C400
DF00
E180
C080
C0C0
C0C0
C0C0
C0C0
C0C0
C0C0
C0C0
ENDCHAR
STARTCHAR 0069
ENCODING 105
SWIDTH 205 0
DWIDTH 4 0
BBX 2 14 1 0
BITMAP
C0
40
00
00
40
40
40
40
40
40
40
40
40
40
ENDCHAR
STARTCHAR 006A
ENCODING 106
SWIDTH 205 0
DWIDTH 4 0
BBX 5 18 -1 -4
BITMAP
18
10
00
00
10
10
10
10
10
10
10
10
10
10
10
10
30
F0
ENDCHAR
STARTCHAR 006B
ENCODING 107
SWIDTH 514 0
DWIDTH 10 0
BBX 7 15 2 0
BITMAP
80
80
80
80
80
8E
98
B0
E0
E0
B0
B0
98
8C
86
ENDCHAR
STARTCHAR 006C
ENCODING 108
SWIDTH 308 0
DWIDTH 6 0
BBX 3 15 2 0
BITMAP
80
80
80
80
80
80
80
80
80
80
80
80
80
C0
E0
ENDCHAR
STARTCHAR 006D
ENCODING 109
SWIDTH 925 0
DWIDTH 18 0
BBX 16 11 1 0
BITMAP
0408
DF3E
E3C3
C1C3
C081
C081
C081
C081
C081
C081
C081
ENDCHAR
STARTCHAR 006E
ENCODING 110
SWIDTH 565 0
DWIDTH 11 0
BBX 10 11 1 0
BITMAP
0400
DF00
E180
C080
C0C0
C0C0
C0C0
C0C0
C0C0
C0C0
C0C0
ENDCHAR
STARTCHAR 006F
ENCODING 111
SWIDTH 565 0
DWIDTH 11 0
BBX 10 10 1 1
BITMAP
3F00
6180
C180
C080
C0C0
C0C0
C080
4180
7300
3E00
ENDCHAR
STARTCHAR 0070
ENCODING 112
SWIDTH 617 0
DWIDTH 12 0
BBX 10 15 1 -4
BITMAP
0400
DF00
E180
E0C0
C0C0
C0C0
C0C0
C0C0
E0C0
D380
CF00
C000
C000
C000
C000
ENDCHAR
STARTCHAR 0071
ENCODING 113
SWIDTH 617 0
DWIDTH 12 0
BBX 10 15 1 -4
BITMAP
0800
3EC0
61C0
C1C0
C0C0
C0C0
C0C0
C0C0
41C0
72C0
3CC0
00C0
00C0
00C0
00C0
ENDCHAR
STARTCHAR 0072
ENCODING 114
SWIDTH 308 0
DWIDTH 6 0
BBX 6 10 1 0
BITMAP
DC
E4
C0
C0
C0
C0
C0
C0
C0
C0
ENDCHAR
STARTCHAR 0073
ENCODING 115
SWIDTH 462 0
DWIDTH 9 0
BBX 8 10 1 1
BITMAP
7E
C2
C3
C0
7C
06
03
C3
66
3C
ENDCHAR
STARTCHAR 0074
ENCODING 116
SWIDTH 360 0
DWIDTH 7 0
BBX 6 14 1 0
BITMAP
20
20
20
20
FC
20
20
20
20
20
20
20
20
3C
ENDCHAR
STARTCHAR 0075
ENCODING 117
SWIDTH 565 0
DWIDTH 11 0
BBX 9 10 1 0
BITMAP
C080
C080
C080
C080
C080
C080
C080
6180
7280
3C80
ENDCHAR
STARTCHAR 0076
ENCODING 118
SWIDTH 514 0
DWIDTH 10 0
BBX 9 10 1 0
BITMAP
C180
C100
4100
6300
6200
2600
3600
3400
1C00
1C00
ENDCHAR
STARTCHAR 0077
ENCODING 119
SWIDTH 771 0
DWIDTH 15 0
BBX 14 10 1 0
BITMAP
830C
C30C
C78C
4788
6498
6C98
2CD0
2850
3870
3870
ENDCHAR
STARTCHAR 0078
ENCODING 120
SWIDTH 514 0
DWIDTH 10 0
BBX 8 10 1 0
BITMAP
C3
63
66
3C
1C
1C
34
66
63
C3
ENDCHAR
STARTCHAR 0079
ENCODING 121
SWIDTH 514 0
DWIDTH 10 0
BBX 9 14 1 -4
BITMAP
C180
C100
4300
6200
6600
2600
3400
1C00
1800
1800
1800
3000
3000
E000
ENDCHAR
STARTCHAR 007A
ENCODING 122
SWIDTH 462 0
DWIDTH 9 0
BBX 8 10 1 0
BITMAP
FF
03
06
0C
18
10
30
60
C0
FF
ENDCHAR
STARTCHAR 007B
ENCODING 123
SWIDTH 411 0
DWIDTH 8 0
BBX 6 20 2 -4
BITMAP
3C
20
20
20
20
20
20
20
20
60
E0
20
20
20
20
20
20
20
20
3C
ENDCHAR
STARTCHAR 007C
ENCODING 124
SWIDTH 257 0
DWIDTH 5 0
BBX 2 23 2 -5
BITMAP
C0
C0
C0
C0
C0
C0
C0
C0
C0
C0
C0
C0
C0
C0
C0
C0
C0
C0
C0
C0
C0
C0
C0
ENDCHAR
STARTCHAR 007D
ENCODING 125
SWIDTH 462 0
DWIDTH 9 0
BBX 6 20 2 -4
BITMAP
F0
10
18
18
18
18
18
18
18
18
1C
18
18
18
18
18
18
18
10
F0
ENDCHAR
STARTCHAR 007E
ENCODING 126
SWIDTH 514 0
DWIDTH 10 0
BBX 7 3 2 6
BITMAP
02
FE
8C
ENDCHAR
STARTCHAR 00A0
ENCODING 160
SWIDTH 205 0
DWIDTH 4 0
BBX 0 0 0 0
BITMAP
ENDCHAR
STARTCHAR 00A1
ENCODING 161
SWIDTH 205 0
DWIDTH 4 0
BBX 2 15 1 -5
BITMAP
C0
C0
00
00
40
40
40
40
40
40
40
C0
C0
C0
C0
ENDCHAR
STARTCHAR 00A2
ENCODING 162
SWIDTH 565 0
DWIDTH 11 0
BBX 9 13 1 -1
BITMAP
0800
0800
3F00
6980
C980
C800
C800
C800
C880
4980
7B00
3E00
0800
ENDCHAR
STARTCHAR 00A3
ENCODING 163
SWIDTH 565 0
DWIDTH 11 0
BBX 10 14 1 0
BITMAP
1E00
7F00
6180
C180
C000
6000
6000
3000
FE00
1000
1000
3000
C000
FFC0
ENDCHAR
STARTCHAR 00A4
ENCODING 164
SWIDTH 565 0
DWIDTH 11 0
BBX 8 8 2 3
BITMAP
BF
C6
83
81
81
83
C6
FF
ENDCHAR
STARTCHAR 00A5
ENCODING 165
SWIDTH 617 0
DWIDTH 12 0
BBX 10 14 1 0
BITMAP
C0C0
C0C0
6180
6180
3300
3300
1E00
1E00
7F80
0C00
0C00
7F80
0C00
0C00
ENDCHAR
STARTCHAR 00A6
ENCODING 166
SWIDTH 257 0
DWIDTH 5 0
BBX 2 23 2 -5
BITMAP
C0
C0
C0
C0
C0
C0
C0
C0
C0
C0
00
00
00
C0
C0
C0
C0
C0
C0
C0
C0
C0
C0
ENDCHAR
STARTCHAR 00A7
ENCODING 167
SWIDTH 514 0
DWIDTH 10 0
BBX 9 14 1 0
BITMAP
3C00
6700
4300
4000
7C00
FF00
C180
C180
7900
1E00
0300
C100
6300
3E00
ENDCHAR
STARTCHAR 00A8
ENCODING 168
SWIDTH 360 0
DWIDTH 7 0
BBX 6 2 1 12
BITMAP
DC
C8
ENDCHAR
STARTCHAR 00A9
ENCODING 169
SWIDTH 771 0
DWIDTH 15 0
BBX 14 14 1 0
BITMAP
0F80
1860
6010
4788
C848
9864
9004
9004
9024
884C
4788
6018
3030
0FC0
ENDCHAR
STARTCHAR 00AA
ENCODING 170
SWIDTH 154 0
DWIDTH 3 0
BBX 3 2 0 8
BITMAP
E0
E0
ENDCHAR
STARTCHAR 00AB
ENCODING 171
SWIDTH 617 0
DWIDTH 12 0
BBX 10 8 1 2
BITMAP
18C0
3180
6300
C600
C200
6100
3080
18C0
ENDCHAR
STARTCHAR 00AC
ENCODING 172
SWIDTH 617 0
DWIDTH 12 0
BBX 9 5 2 5
BITMAP
FF80
0080
0080
0080
0080
ENDCHAR
STARTCHAR 00AD
ENCODING 173
SWIDTH 565 0
DWIDTH 11 0
BBX 7 2 2 5
BITMAP
FE
FE
ENDCHAR
STARTCHAR 00AE
ENCODING 174
SWIDTH 308 0
DWIDTH 6 0
BBX 5 5 1 9
BITMAP
20
90
E8
E8
F0
ENDCHAR
STARTCHAR 00AF
ENCODING 175
SWIDTH 360 0
DWIDTH 7 0
BBX 5 1 1 12
BITMAP
F8
ENDCHAR
STARTCHAR 00B0
ENCODING 176
SWIDTH 257 0
DWIDTH 5 0
BBX 4 4 1 13
BITMAP
60
90
90
60
ENDCHAR
STARTCHAR 00B1
ENCODING 177
SWIDTH 565 0
DWIDTH 11 0
BBX 8 11 2 0
BITMAP
18
18
18
FF
FF
18
18
18
00
00
FF
ENDCHAR
STARTCHAR 00B2
ENCODING 178
SWIDTH 257 0
DWIDTH 5 0
BBX 4 8 1 7
BITMAP
60
90
90
10
20
40
80
F0
ENDCHAR
STARTCHAR 00B3
ENCODING 179
SWIDTH 308 0
DWIDTH 6 0
BBX 5 8 1 7
BITMAP
60
90
18
70
10
08
90
60
ENDCHAR
STARTCHAR 00B4
ENCODING 180
SWIDTH 205 0
DWIDTH 4 0
BBX 3 4 1 12
BITMAP
60
60
C0
80
ENDCHAR
STARTCHAR 00B5
ENCODING 181
SWIDTH 617 0
DWIDTH 12 0
BBX 11 14 1 -4
BITMAP
C180
C180
C180
C180
C180
C180
C180
C380
E780
FCE0
C000
C000
C000
C000
ENDCHAR
STARTCHAR 00B6
ENCODING 182
SWIDTH 514 0
DWIDTH 10 0
BBX 8 14 1 0
BITMAP
3F
FF
FD
FD
FD
FD
7D
0D
0D
0D
0D
0D
0D
0D
ENDCHAR
STARTCHAR 00B7
ENCODING 183
SWIDTH 257 0
DWIDTH 5 0
BBX 2 2 2 6
BITMAP
C0
C0
ENDCHAR
STARTCHAR 00B8
ENCODING 184
SWIDTH 205 0
DWIDTH 4 0
BBX 3 5 1 -5
BITMAP
80
E0
20
20
C0
ENDCHAR
STARTCHAR 00B9
ENCODING 185
SWIDTH 257 0
DWIDTH 5 0
BBX 3 8 1 7
BITMAP
40
C0
40
40
40
40
E0
E0
ENDCHAR
STARTCHAR 00BA
ENCODING 186
SWIDTH 154 0
DWIDTH 3 0
BBX 3 2 0 8
BITMAP
E0
E0
ENDCHAR
STARTCHAR 00BB
ENCODING 187
SWIDTH 617 0
DWIDTH 12 0
BBX 10 8 1 2
BITMAP
C200
6100
3080
18C0
18C0
3180
6300
C600
ENDCHAR
STARTCHAR 00BC
ENCODING 188
SWIDTH 771 0
DWIDTH 15 0
BBX 14 14 1 0
BITMAP
4030
C020
C060
40C0
4080
4180
F100
0318
0618
0428
0C48
087C
1808
1008
ENDCHAR
STARTCHAR 00BD
ENCODING 189
SWIDTH 822 0
DWIDTH 16 0
BBX 15 14 1 0
BITMAP
4010
C030
C060
4040
40C0
4080
F180
031C
0224
0604
0404
0C08
1830
103E
ENDCHAR
STARTCHAR 00BE
ENCODING 190
SWIDTH 822 0
DWIDTH 16 0
BBX 15 14 1 0
BITMAP
6010
D030
1820
3060
10C0
9880
F180
010C
0314
0614
0424
0C3E
0804
1804
ENDCHAR
STARTCHAR 00BF
ENCODING 191
SWIDTH 565 0
DWIDTH 11 0
BBX 9 14 1 -5
BITMAP
0C00
0C00
0000
0C00
0C00
1800
3000
6000
C000
C180
C180
C180
7F00
1C00
ENDCHAR
STARTCHAR 00C0
ENCODING 192
SWIDTH 668 0
DWIDTH 13 0
BBX 11 18 1 0
BITMAP
1800
0800
0400
0000
0400
0E00
0E00
0B00
1B00
1100
1180
3180
2080
7FC0
6040
4060
C060
C020
ENDCHAR
STARTCHAR 00C1
ENCODING 193
SWIDTH 668 0
DWIDTH 13 0
BBX 11 18 1 0
BITMAP
0300
0200
0600
0000
0400
0E00
0E00
0B00
1B00
1100
1180
3180
2080
7FC0
6040
4060
C060
C020
ENDCHAR
STARTCHAR 00C2
ENCODING 194
SWIDTH 668 0
DWIDTH 13 0
BBX 11 18 1 0
BITMAP
0600
0A00
1900
0000
0400
0E00
0E00
0B00
1B00
1100
1180
3180
2080
7FC0
6040
4060
C060
C020
ENDCHAR
STARTCHAR 00C3
ENCODING 195
SWIDTH 668 0
DWIDTH 13 0
BBX 11 18 1 0
BITMAP
0900
1F00
1200
0000
0400
0E00
0E00
0B00
1B00
1100
1180
3180
2080
7FC0
6040
4060
C060
C020
ENDCHAR
STARTCHAR 00C4
ENCODING 196
SWIDTH 668 0
DWIDTH 13 0
BBX 11 18 1 0
BITMAP
1100
1B80
0000
0000
0400
0E00
0E00
0B00
1B00
1100
1180
3180
2080
7FC0
6040
4060
C060
C020
ENDCHAR
STARTCHAR 00C5
ENCODING 197
SWIDTH 668 0
DWIDTH 13 0
BBX 11 19 1 0
BITMAP
0400
0A00
0A00
0400
0000
0400
0E00
0E00
0B00
1B00
1100
1180
3180
2080
7FC0
6040
4060
C060
C020
ENDCHAR
STARTCHAR 00C6
ENCODING 198
SWIDTH 925 0
DWIDTH 18 0
BBX 16 14 1 0
BITMAP
01FF
03FF
02C0
06C0
0CC0
0CC0
18FF
18FF
30C0
3FC0
60C0
60C0
C0FF
C0FF
ENDCHAR
STARTCHAR 00C7
ENCODING 199
SWIDTH 668 0
DWIDTH 13 0
BBX 12 19 1 -5
BITMAP
0F00
3FC0
7060
6030
C030
C000
C000
C000
C000
C000
6030
6060
39C0
1F80
0200
0700
0080
0080
0700
ENDCHAR
STARTCHAR 00C8
ENCODING 200
SWIDTH 565 0
DWIDTH 11 0
BBX 9 18 1 0
BITMAP
3000
1000
0800
0000
FF80
FF80
C000
C000
C000
C000
FF00
FF00
C000
C000
C000
C000
FF80
FF80
ENDCHAR
STARTCHAR 00C9
ENCODING 201
SWIDTH 565 0
DWIDTH 11 0
BBX 9 18 1 0
BITMAP
0600
0400
0C00
0000
FF80
FF80
C000
C000
C000
C000
FF00
FF00
C000
C000
C000
C000
FF80
FF80
ENDCHAR
STARTCHAR 00CA
ENCODING 202
SWIDTH 565 0
DWIDTH 11 0
BBX 9 18 1 0
BITMAP
0C00
1400
3200
0000
FF80
FF80
C000
C000
C000
C000
FF00
FF00
C000
C000
C000
C000
FF80
FF80
ENDCHAR
STARTCHAR 00CB
ENCODING 203
SWIDTH 565 0
DWIDTH 11 0
BBX 9 18 1 0
BITMAP
2200
3700
0000
0000
FF80
FF80
C000
C000
C000
C000
FF00
FF00
C000
C000
C000
C000
FF80
FF80
ENDCHAR
STARTCHAR 00CC
ENCODING 204
SWIDTH 205 0
DWIDTH 4 0
BBX 3 18 0 0
BITMAP
C0
40
60
00
20
20
20
20
20
20
20
20
20
20
20
20
20
20
ENDCHAR
STARTCHAR 00CD
ENCODING 205
SWIDTH 205 0
DWIDTH 4 0
BBX 3 18 2 0
BITMAP
60
40
80
00
80
80
80
80
80
80
80
80
80
80
80
80
80
80
ENDCHAR
STARTCHAR 00CE
ENCODING 206
SWIDTH 205 0
DWIDTH 4 0
BBX 5 18 0 0
BITMAP
60
50
98
00
20
20
20
20
20
20
20
20
20
20
20
20
20
20
ENDCHAR
STARTCHAR 00CF
ENCODING 207
SWIDTH 205 0
DWIDTH 4 0
BBX 6 18 -1 0
BITMAP
44
EC
00
00
10
10
10
10
10
10
10
10
10
10
10
10
10
10
ENDCHAR
STARTCHAR 00D0
ENCODING 208
SWIDTH 668 0
DWIDTH 13 0
BBX 12 14 1 0
BITMAP
7E00
7F80
60E0
6060
6030
6030
F830
F830
6030
6030
6020
6060
7FC0
7F00
ENDCHAR
STARTCHAR 00D1
ENCODING 209
SWIDTH 668 0
DWIDTH 13 0
BBX 11 18 1 0
BITMAP
0880
1F80
1100
0000
C020
E020
F020
F020
D820
CC20
CC20
C620
C320
C320
C1A0
C0E0
C0E0
C060
ENDCHAR
STARTCHAR 00D2
ENCODING 210
SWIDTH 720 0
DWIDTH 14 0
BBX 12 18 1 0
BITMAP
0800
0C00
0400
0000
0F00
3FC0
7060
6030
C030
C030
C030
C030
C030
C030
6030
6060
39C0
1F80
ENDCHAR
STARTCHAR 00D3
ENCODING 211
SWIDTH 720 0
DWIDTH 14 0
BBX 12 18 1 0
BITMAP
0180
0300
0200
0000
0F00
3FC0
7060
6030
C030
C030
C030
C030
C030
C030
6030
6060
39C0
1F80
ENDCHAR
STARTCHAR 00D4
ENCODING 212
SWIDTH 720 0
DWIDTH 14 0
BBX 12 18 1 0
BITMAP
0600
0F00
1980
0000
0F00
3FC0
7060
6030
C030
C030
C030
C030
C030
C030
6030
6060
39C0
1F80
ENDCHAR
STARTCHAR 00D5
ENCODING 213
SWIDTH 720 0
DWIDTH 14 0
BBX 12 18 1 0
BITMAP
0080
0F80
1100
0000
0F00
3FC0
7060
6030
C030
C030
C030
C030
C030
C030
6030
6060
39C0
1F80
ENDCHAR
STARTCHAR 00D6
ENCODING 214
SWIDTH 720 0
DWIDTH 14 0
BBX 12 18 1 0
BITMAP
0980
1980
0000
0000
0F00
3FC0
7060
6030
C030
C030
C030
C030
C030
C030
6030
6060
39C0
1F80
ENDCHAR
STARTCHAR 00D7
ENCODING 215
SWIDTH 514 0
DWIDTH 10 0
BBX 6 6 2 3
BITMAP
C4
6C
38
38
6C
44
ENDCHAR
STARTCHAR 00D8
ENCODING 216
SWIDTH 720 0
DWIDTH 14 0
BBX 12 15 1 -1
BITMAP
0FA0
3FE0
70E0
60B0
C1B0
C130
C210
C610
C430
CC30
7830
7060
39C0
7F80
4000
ENDCHAR
STARTCHAR 00D9
ENCODING 217
SWIDTH 668 0
DWIDTH 13 0
BBX 11 18 1 0
BITMAP
1800
0800
0400
0000
C060
C060
C060
C060
C060
C060
C060
C060
C060
C060
4060
60C0
39C0
1F80
ENDCHAR
STARTCHAR 00DA
ENCODING 218
SWIDTH 668 0
DWIDTH 13 0
BBX 11 18 1 0
BITMAP
0300
0200
0600
0000
C060
C060
C060
C060
C060
C060
C060
C060
C060
C060
4060
60C0
39C0
1F80
ENDCHAR
STARTCHAR 00DB
ENCODING 219
SWIDTH 668 0
DWIDTH 13 0
BBX 11 18 1 0
BITMAP
0600
0B00
1900
0000
C060
C060
C060
C060
C060
C060
C060
C060
C060
C060
4060
60C0
39C0
1F80
ENDCHAR
STARTCHAR 00DC
ENCODING 220
SWIDTH 668 0
DWIDTH 13 0
BBX 11 18 1 0
BITMAP
1100
1980
0000
0000
C060
C060
C060
C060
C060
C060
C060
C060
C060
C060
4060
60C0
39C0
1F80
ENDCHAR
STARTCHAR 00DD
ENCODING 221
SWIDTH 565 0
DWIDTH 11 0
BBX 10 18 1 0
BITMAP
0300
0600
0400
0000
C0C0
C0C0
6180
6180
3300
3300
1E00
1E00
0C00
0C00
0C00
0C00
0C00
0C00
ENDCHAR
STARTCHAR 00DE
ENCODING 222
SWIDTH 565 0
DWIDTH 11 0
BBX 10 14 1 0
BITMAP
C000
C000
C000
FF00
C380
C080
C0C0
C0C0
C0C0
C180
FF00
FC00
C000
C000
ENDCHAR
STARTCHAR 00DF
ENCODING 223
SWIDTH 565 0
DWIDTH 11 0
BBX 9 14 1 0
BITMAP
3E00
7700
4100
4180
C180
C300
DE00
C700
C180
C180
C180
C180
C300
CE00
ENDCHAR
STARTCHAR 00E0
ENCODING 224
SWIDTH 617 0
DWIDTH 12 0
BBX 10 15 1 0
BITMAP
3000
1800
0800
0000
0800
3EC0
61C0
C1C0
C0C0
C0C0
C0C0
C0C0
C1C0
72C0
3CC0
ENDCHAR
STARTCHAR 00E1
ENCODING 225
SWIDTH 617 0
DWIDTH 12 0
BBX 10 15 1 0
BITMAP
0300
0600
0400
0000
0800
3EC0
61C0
C1C0
C0C0
C0C0
C0C0
C0C0
C1C0
72C0
3CC0
ENDCHAR
STARTCHAR 00E2
ENCODING 226
SWIDTH 617 0
DWIDTH 12 0
BBX 10 14 1 0
BITMAP
1C00
1200
2100
0800
3EC0
61C0
C1C0
C0C0
C0C0
C0C0
C0C0
C1C0
72C0
3CC0
ENDCHAR
STARTCHAR 00E3
ENCODING 227
SWIDTH 617 0
DWIDTH 12 0
BBX 10 14 1 0
BITMAP
3900
2600
0000
0800
3EC0
61C0
C1C0
C0C0
C0C0
C0C0
C0C0
C1C0
72C0
3CC0
ENDCHAR
STARTCHAR 00E4
ENCODING 228
SWIDTH 617 0
DWIDTH 12 0
BBX 10 14 1 0
BITMAP
3300
3300
0000
0800
3EC0
61C0
C1C0
C0C0
C0C0
C0C0
C0C0
C1C0
72C0
3CC0
ENDCHAR
STARTCHAR 00E5
ENCODING 229
SWIDTH 617 0
DWIDTH 12 0
BBX 10 15 1 0
BITMAP
1C00
1200
0C00
0000
0800
3EC0
61C0
C1C0
C0C0
C0C0
C0C0
C0C0
C1C0
72C0
3CC0
ENDCHAR
STARTCHAR 00E6
ENCODING 230
SWIDTH 925 0
DWIDTH 18 0
BBX 16 10 1 1
BITMAP
7E7E
63C2
C183
0181
3FFF
E180
C180
C183
C6E6
7C7C
ENDCHAR
STARTCHAR 00E7
ENCODING 231
SWIDTH 565 0
DWIDTH 11 0
BBX 9 15 1 -4
BITMAP
3F00
6180
C180
C000
C000
C000
C080
4180
7300
3E00
0800
0E00
0200
0200
0C00
ENDCHAR
STARTCHAR 00E8
ENCODING 232
SWIDTH 565 0
DWIDTH 11 0
BBX 9 15 1 0
BITMAP
3000
1000
1800
0000
0000
3F00
6180
C180
C080
FF80
C000
C000
4180
7300
3E00
ENDCHAR
STARTCHAR 00E9
ENCODING 233
SWIDTH 565 0
DWIDTH 11 0
BBX 9 15 1 0
BITMAP
0200
0600
0400
0000
0000
3F00
6180
C180
C080
FF80
C000
C000
4180
7300
3E00
ENDCHAR
STARTCHAR 00EA
ENCODING 234
SWIDTH 565 0
DWIDTH 11 0
BBX 9 14 1 0
BITMAP
1C00
3200
0100
0000
3F00
6180
C180
C080
FF80
C000
C000
4180
7300
3E00
ENDCHAR
STARTCHAR 00EB
ENCODING 235
SWIDTH 565 0
DWIDTH 11 0
BBX 9 14 1 0
BITMAP
3300
3300
0000
0000
3F00
6180
C180
C080
FF80
C000
C000
4180
7300
3E00
ENDCHAR
STARTCHAR 00EC
ENCODING 236
SWIDTH 205 0
DWIDTH 4 0
BBX 3 15 0 0
BITMAP
80
C0
60
00
00
20
20
20
20
20
20
20
20
20
20
ENDCHAR
STARTCHAR 00ED
ENCODING 237
SWIDTH 205 0
DWIDTH 4 0
BBX 3 15 2 0
BITMAP
60
40
C0
00
00
80
80
80
80
80
80
80
80
80
80
ENDCHAR
STARTCHAR 00EE
ENCODING 238
SWIDTH 205 0
DWIDTH 4 0
BBX 5 14 0 0
BITMAP
70
D8
00
00
20
20
20
20
20
20
20
20
20
20
ENDCHAR
STARTCHAR 00EF
ENCODING 239
SWIDTH 205 0
DWIDTH 4 0
BBX 6 14 -1 0
BITMAP
EC
44
00
00
10
10
10
10
10
10
10
10
10
10
ENDCHAR
STARTCHAR 00F0
ENCODING 240
SWIDTH 565 0
DWIDTH 11 0
BBX 9 15 1 0
BITMAP
1D80
0700
0D00
0180
0080
7E80
6380
C180
C080
C080
C080
C180
C180
6300
3E00
ENDCHAR
STARTCHAR 00F1
ENCODING 241
SWIDTH 565 0
DWIDTH 11 0
BBX 10 14 1 0
BITMAP
3900
2600
0000
0400
DF00
E180
C080
C0C0
C0C0
C0C0
C0C0
C0C0
C0C0
C0C0
ENDCHAR
STARTCHAR 00F2
ENCODING 242
SWIDTH 565 0
DWIDTH 11 0
BBX 10 15 1 0
BITMAP
3000
1000
1800
0000
0000
3F00
6180
C180
C080
C0C0
C0C0
C080
4180
7300
3E00
ENDCHAR
STARTCHAR 00F3
ENCODING 243
SWIDTH 565 0
DWIDTH 11 0
BBX 10 15 1 0
BITMAP
0200
0600
0400
0000
0000
3F00
6180
C180
C080
C0C0
C0C0
C080
4180
7300
3E00
ENDCHAR
STARTCHAR 00F4
ENCODING 244
SWIDTH 565 0
DWIDTH 11 0
BBX 10 14 1 0
BITMAP
1C00
3200
0100
0000
3F00
6180
C180
C080
C0C0
C0C0
C080
4180
7300
3E00
ENDCHAR
STARTCHAR 00F5
ENCODING 245
SWIDTH 565 0
DWIDTH 11 0
BBX 10 14 1 0
BITMAP
3B00
2600
0000
0000
3F00
6180
C180
C080
C0C0
C0C0
C080
4180
7300
3E00
ENDCHAR
STARTCHAR 00F6
ENCODING 246
SWIDTH 565 0
DWIDTH 11 0
BBX 10 14 1 0
BITMAP
3300
3300
0000
0000
3F00
6180
C180
C080
C0C0
C0C0
C080
4180
7300
3E00
ENDCHAR
STARTCHAR 00F7
ENCODING 247
SWIDTH 565 0
DWIDTH 11 0
BBX 8 9 1 2
BITMAP
08
18
08
00
FF
FF
00
08
18
ENDCHAR
STARTCHAR 00F8
ENCODING 248
SWIDTH 565 0
DWIDTH 11 0
BBX 10 12 1 -1
BITMAP
0100
3F00
6380
C780
C480
CCC0
C8C0
D080
5180
7300
7E00
4000
ENDCHAR
STARTCHAR 00F9
ENCODING 249
SWIDTH 565 0
DWIDTH 11 0
BBX 9 15 1 0
BITMAP
3000
1000
1800
0000
0000
C080
C080
C080
C080
C080
C080
C080
6180
7280
3C80
ENDCHAR
STARTCHAR 00FA
ENCODING 250
SWIDTH 565 0
DWIDTH 11 0
BBX 9 15 1 0
BITMAP
0200
0600
0C00
0000
0000
C080
C080
C080
C080
C080
C080
C080
6180
7280
3C80
ENDCHAR
STARTCHAR 00FB
ENCODING 251
SWIDTH 565 0
DWIDTH 11 0
BBX 9 14 1 0
BITMAP
1C00
3600
0000
0000
C080
C080
C080
C080
C080
C080
C080
6180
7280
3C80
ENDCHAR
STARTCHAR 00FC
ENCODING 252
SWIDTH 565 0
DWIDTH 11 0
BBX 9 14 1 0
BITMAP
3700
3200
0000
0000
C080
C080
C080
C080
C080
C080
C080
6180
7280
3C80
ENDCHAR
STARTCHAR 00FD
ENCODING 253
SWIDTH 514 0
DWIDTH 10 0
BBX 9 19 1 -4
BITMAP
0600
0400
0C00
0000
0000
C180
C100
4300
6200
6600
2600
3400
1C00
1800
1800
1800
3000
3000
E000
ENDCHAR
STARTCHAR 00FE
ENCODING 254
SWIDTH 617 0
DWIDTH 12 0
BBX 10 20 1 -5
BITMAP
C000
C000
C000
C000
C400
DF00
E180
E0C0
C0C0
C0C0
C0C0
C0C0
E0C0
D380
CF00
C000
C000
C000
C000
C000
ENDCHAR
STARTCHAR 00FF
ENCODING 255
SWIDTH 514 0
DWIDTH 10 0
BBX 9 18 1 -4
BITMAP
6600
2600
0000
0000
C180
C100
4300
6200
6600
2600
3400
1C00
1800
1800
1800
3000
3000
E000
ENDCHAR
STARTCHAR 0100
ENCODING 256
SWIDTH 668 0
DWIDTH 13 0
BBX 11 16 1 0
BITMAP
1F00
0000
0400
0E00
0E00
0B00
1B00
1100
1180
3180
2080
7FC0
6040
4060
C060
C020
ENDCHAR
STARTCHAR 0101
ENCODING 257
SWIDTH 617 0
DWIDTH 12 0
BBX 10 13 1 0
BITMAP
3F00
0000
0800
3EC0
61C0
C1C0
C0C0
C0C0
C0C0
C0C0
C1C0
72C0
3CC0
ENDCHAR
STARTCHAR 0102
ENCODING 258
SWIDTH 668 0
DWIDTH 13 0
BBX 11 17 1 0
BITMAP
1100
0E00
0000
0400
0E00
0E00
0B00
1B00
1100
1180
3180
2080
7FC0
6040
4060
C060
C020
ENDCHAR
STARTCHAR 0103
ENCODING 259
SWIDTH 617 0
DWIDTH 12 0
BBX 10 14 1 0
BITMAP
2100
1E00
0000
0800
3EC0
61C0
C1C0
C0C0
C0C0
C0C0
C0C0
C1C0
72C0
3CC0
ENDCHAR
STARTCHAR 0104
ENCODING 260
SWIDTH 668 0
DWIDTH 13 0
BBX 12 17 1 -3
BITMAP
0400
0E00
0E00
0B00
1B00
1100
1180
3180
2080
7FC0
6040
4060
C060
C020
0060
0040
0070
ENDCHAR
STARTCHAR 0105
ENCODING 261
SWIDTH 617 0
DWIDTH 12 0
BBX 10 14 1 -3
BITMAP
0800
3EC0
61C0
C1C0
C0C0
C0C0
C0C0
C0C0
C1C0
72C0
3CC0
0080
0100
00C0
ENDCHAR
STARTCHAR 0106
ENCODING 262
SWIDTH 668 0
DWIDTH 13 0
BBX 12 18 1 0
BITMAP
0180
0300
0200
0000
0F00
3FC0
7060
6030
C030
C000
C000
C000
C000
C000
6030
6060
39C0
1F80
ENDCHAR
STARTCHAR 0107
ENCODING 263
SWIDTH 565 0
DWIDTH 11 0
BBX 9 15 1 0
BITMAP
0300
0600
0400
0000
0000
3F00
6180
C180
C000
C000
C000
C080
4180
7300
3E00
ENDCHAR
STARTCHAR 010A
ENCODING 266
SWIDTH 668 0
DWIDTH 13 0
BBX 12 18 1 0
BITMAP
0600
0600
0000
0000
0F00
3FC0
7060
6030
C030
C000
C000
C000
C000
C000
6030
6060
39C0
1F80
ENDCHAR
STARTCHAR 010B
ENCODING 267
SWIDTH 565 0
DWIDTH 11 0
BBX 9 14 1 0
BITMAP
0C00
0C00
0000
0000
3F00
6180
C180
C000
C000
C000
C080
4180
7300
3E00
ENDCHAR
STARTCHAR 010C
ENCODING 268
SWIDTH 668 0
DWIDTH 13 0
BBX 12 18 1 0
BITMAP
1980
0B00
0600
0000
0F00
3FC0
7060
6030
C030
C000
C000
C000
C000
C000
6030
6060
39C0
1F80
ENDCHAR
STARTCHAR 010D
ENCODING 269
SWIDTH 565 0
DWIDTH 11 0
BBX 9 14 1 0
BITMAP
3300
1C00
0000
0000
3F00
6180
C180
C000
C000
C000
C080
4180
7300
3E00
ENDCHAR
STARTCHAR 010E
ENCODING 270
SWIDTH 668 0
DWIDTH 13 0
BBX 11 18 1 0
BITMAP
3180
1B00
0E00
0000
FE00
FF80
C0C0
C060
C060
C020
C020
C020
C020
C060
C060
C0C0
FFC0
FF00
ENDCHAR
STARTCHAR 010F
ENCODING 271
SWIDTH 720 0
DWIDTH 14 0
BBX 13 15 1 0
BITMAP
00F8
00D8
00C8
00C8
08D0
3EC0
61C0
C1C0
C0C0
C0C0
C0C0
C0C0
C1C0
72C0
3CC0
ENDCHAR
STARTCHAR 0110
ENCODING 272
SWIDTH 668 0
DWIDTH 13 0
BBX 12 14 1 0
BITMAP
7E00
7F80
60E0
6060
6030
6030
F830
F830
6030
6030
6020
6060
7FC0
7F00
ENDCHAR
STARTCHAR 0111
ENCODING 273
SWIDTH 617 0
DWIDTH 12 0
BBX 11 15 1 0
BITMAP
00C0
00C0
07E0
00C0
08C0
3EC0
61C0
C1C0
C0C0
C0C0
C0C0
C0C0
C1C0
72C0
3CC0
ENDCHAR
STARTCHAR 0112
ENCODING 274
SWIDTH 565 0
DWIDTH 11 0
BBX 9 16 1 0
BITMAP
3E00
0000
FF80
FF80
C000
C000
C000
C000
FF00
FF00
C000
C000
C000
C000
FF80
FF80
ENDCHAR
STARTCHAR 0113
ENCODING 275
SWIDTH 565 0
DWIDTH 11 0
BBX 9 13 1 0
BITMAP
3F00
0000
0000
3F00
6180
C180
C080
FF80
C000
C000
4180
7300
3E00
ENDCHAR
STARTCHAR 0116
ENCODING 278
SWIDTH 565 0
DWIDTH 11 0
BBX 9 18 1 0
BITMAP
0800
0C00
0000
0000
FF80
FF80
C000
C000
C000
C000
FF00
FF00
C000
C000
C000
C000
FF80
FF80
ENDCHAR
STARTCHAR 0117
ENCODING 279
SWIDTH 565 0
DWIDTH 11 0
BBX 9 14 1 0
BITMAP
0C00
0C00
0000
0000
3F00
6180
C180
C080
FF80
C000
C000
4180
7300
3E00
ENDCHAR
STARTCHAR 0118
ENCODING 280
SWIDTH 565 0
DWIDTH 11 0
BBX 10 17 1 -3
BITMAP
FF80
FF80
C000
C000
C000
C000
FF00
FF00
C000
C000
C000
C000
FF80
FF80
0100
0100
01C0
ENDCHAR
STARTCHAR 0119
ENCODING 281
SWIDTH 565 0
DWIDTH 11 0
BBX 9 13 1 -2
BITMAP
3F00
6180
C180
C080
FF80
C000
C000
4180
7300
3E00
0800
1000
0C00
ENDCHAR
STARTCHAR 011A
ENCODING 282
SWIDTH 565 0
DWIDTH 11 0
BBX 9 18 1 0
BITMAP
2300
3600
1C00
0000
FF80
FF80
C000
C000
C000
C000
FF00
FF00
C000
C000
C000
C000
FF80
FF80
ENDCHAR
STARTCHAR 011B
ENCODING 283
SWIDTH 565 0
DWIDTH 11 0
BBX 9 14 1 0
BITMAP
3300
1C00
0000
0000
3F00
6180
C180
C080
FF80
C000
C000
4180
7300
3E00
ENDCHAR
STARTCHAR 011E
ENCODING 286
SWIDTH 668 0
DWIDTH 13 0
BBX 12 17 1 0
BITMAP
1980
0F00
0000
0F00
3FC0
6060
6020
C000
C000
C000
C3F0
C030
C030
4030
6070
38F0
1FB0
ENDCHAR
STARTCHAR 011F
ENCODING 287
SWIDTH 617 0
DWIDTH 12 0
BBX 10 18 1 -4
BITMAP
2100
1E00
0000
0800
3EC0
61C0
C1C0
C0C0
C0C0
C0C0
C0C0
61C0
7EC0
1CC0
00C0
0180
1380
1F00
ENDCHAR
STARTCHAR 0120
ENCODING 288
SWIDTH 668 0
DWIDTH 13 0
BBX 12 18 1 0
BITMAP
0600
0600
0000
0000
0F00
3FC0
6060
6020
C000
C000
C000
C3F0
C030
C030
4030
6070
38F0
1FB0
ENDCHAR
STARTCHAR 0121
ENCODING 289
SWIDTH 617 0
DWIDTH 12 0
BBX 10 18 1 -4
BITMAP
0C00
0C00
0000
0800
3EC0
61C0
C1C0
C0C0
C0C0
C0C0
C0C0
61C0
7EC0
1CC0
00C0
0180
1380
1F00
ENDCHAR
STARTCHAR 0126
ENCODING 294
SWIDTH 668 0
DWIDTH 13 0
BBX 13 14 0 0
BITMAP
2030
2030
2030
FFF8
2030
2030
3FF0
3FF0
2030
2030
2030
2030
2030
2030
ENDCHAR
STARTCHAR 0127
ENCODING 295
SWIDTH 565 0
DWIDTH 11 0
BBX 11 15 0 0
BITMAP
2000
2000
FC00
2000
2100
2FC0
28C0
3060
2060
2060
2060
2060
2060
2060
2060
ENDCHAR
STARTCHAR 0128
ENCODING 296
SWIDTH 205 0
DWIDTH 4 0
BBX 5 18 0 0
BITMAP
48
F8
90
00
20
20
20
20
20
20
20
20
20
20
20
20
20
20
ENDCHAR
STARTCHAR 0129
ENCODING 297
SWIDTH 205 0
DWIDTH 4 0
BBX 5 14 0 0
BITMAP
E8
B8
00
00
20
20
20
20
20
20
20
20
20
20
ENDCHAR
STARTCHAR 012A
ENCODING 298
SWIDTH 205 0
DWIDTH 4 0
BBX 5 16 0 0
BITMAP
F8
00
20
20
20
20
20
20
20
20
20
20
20
20
20
20
ENDCHAR
STARTCHAR 012B
ENCODING 299
SWIDTH 205 0
DWIDTH 4 0
BBX 5 13 0 0
BITMAP
F8
00
00
20
20
20
20
20
20
20
20
20
20
ENDCHAR
STARTCHAR 012E
ENCODING 302
SWIDTH 205 0
DWIDTH 4 0
BBX 3 17 1 -3
BITMAP
40
40
40
40
40
40
40
40
40
40
40
40
40
40
C0
80
E0
ENDCHAR
STARTCHAR 012F
ENCODING 303
SWIDTH 205 0
DWIDTH 4 0
BBX 3 17 1 -3
BITMAP
C0
40
00
00
40
40
40
40
40
40
40
40
40
40
C0
80
E0
ENDCHAR
STARTCHAR 0130
ENCODING 304
SWIDTH 205 0
DWIDTH 4 0
BBX 2 18 1 0
BITMAP
40
C0
00
00
40
40
40
40
40
40
40
40
40
40
40
40
40
40
ENDCHAR
STARTCHAR 0131
ENCODING 305
SWIDTH 205 0
DWIDTH 4 0
BBX 1 10 2 0
BITMAP
80
80
80
80
80
80
80
80
80
80
ENDCHAR
STARTCHAR 0139
ENCODING 313
SWIDTH 514 0
DWIDTH 10 0
BBX 8 18 1 0
BITMAP
30
20
40
00
C0
C0
C0
C0
C0
C0
C0
C0
C0
C0
C0
C0
FF
FF
ENDCHAR
STARTCHAR 013A
ENCODING 314
SWIDTH 308 0
DWIDTH 6 0
BBX 3 19 2 0
BITMAP
60
40
80
00
80
80
80
80
80
80
80
80
80
80
80
80
80
C0
E0
ENDCHAR
STARTCHAR 013D
ENCODING 317
SWIDTH 514 0
DWIDTH 10 0
BBX 10 18 -1 0
BITMAP
C400
6800
3800
0000
3000
3000
3000
3000
3000
3000
3000
3000
3000
3000
3000
3000
3FC0
3FC0
ENDCHAR
STARTCHAR 013E
ENCODING 318
SWIDTH 308 0
DWIDTH 6 0
BBX 5 15 2 0
BITMAP
B8
B8
88
90
A0
80
80
80
80
80
80
80
80
C0
E0
ENDCHAR
STARTCHAR 0143
ENCODING 323
SWIDTH 668 0
DWIDTH 13 0
BBX 11 18 1 0
BITMAP
0100
0300
0200
0000
C020
E020
F020
F020
D820
CC20
CC20
C620
C320
C320
C1A0
C0E0
C0E0
C060
ENDCHAR
STARTCHAR 0144
ENCODING 324
SWIDTH 565 0
DWIDTH 11 0
BBX 10 15 1 0
BITMAP
0300
0600
0400
0000
0400
DF00
E180
C080
C0C0
C0C0
C0C0
C0C0
C0C0
C0C0
C0C0
ENDCHAR
STARTCHAR 0147
ENCODING 327
SWIDTH 668 0
DWIDTH 13 0
BBX 11 18 1 0
BITMAP
1180
0B00
0600
0000
C020
E020
F020
F020
D820
CC20
CC20
C620
C320
C320
C1A0
C0E0
C0E0
C060
ENDCHAR
STARTCHAR 0148
ENCODING 328
SWIDTH 565 0
DWIDTH 11 0
BBX 10 14 1 0
BITMAP
3300
1E00
0000
0400
DF00
E180
C080
C0C0
C0C0
C0C0
C0C0
C0C0
C0C0
C0C0
ENDCHAR
STARTCHAR 014C
ENCODING 332
SWIDTH 720 0
DWIDTH 14 0
BBX 12 16 1 0
BITMAP
0F80
0000
0F00
3FC0
7060
6030
C030
C030
C030
C030
C030
C030
6030
6060
39C0
1F80
ENDCHAR
STARTCHAR 014D
ENCODING 333
SWIDTH 565 0
DWIDTH 11 0
BBX 10 13 1 0
BITMAP
3F00
0000
0000
3F00
6180
C180
C080
C0C0
C0C0
C080
4180
7300
3E00
ENDCHAR
STARTCHAR 0152
ENCODING 338
SWIDTH 925 0
DWIDTH 18 0
BBX 17 14 1 0
BITMAP
07FF80
3FFF80
70C000
60C000
C0C000
C0C000
C0FF00
C0FF00
C0C000
C0C000
C0C000
60C000
3FFF80
1FFF80
ENDCHAR
STARTCHAR 0153
ENCODING 339
SWIDTH 977 0
DWIDTH 19 0
BBX 17 11 1 0
BITMAP
000800
3F3F00
636100
C1C180
C0C080
C0FF80
C0C000
C0C000
41C180
737300
3E3E00
ENDCHAR
STARTCHAR 0154
ENCODING 340
SWIDTH 565 0
DWIDTH 11 0
BBX 10 18 1 0
BITMAP
0600
0400
0C00
0000
FC00
FF80
C180
C0C0
C0C0
C0C0
C180
FF80
FC00
C600
C300
C300
C180
C0C0
ENDCHAR
STARTCHAR 0155
ENCODING 341
SWIDTH 308 0
DWIDTH 6 0
BBX 6 15 1 0
BITMAP
18
10
30
00
00
DC
E4
C0
C0
C0
C0
C0
C0
C0
C0
ENDCHAR
STARTCHAR 0158
ENCODING 344
SWIDTH 565 0
DWIDTH 11 0
BBX 10 18 1 0
BITMAP
6300
3600
1C00
0000
FC00
FF80
C180
C0C0
C0C0
C0C0
C180
FF80
FC00
C600
C300
C300
C180
C0C0
ENDCHAR
STARTCHAR 0159
ENCODING 345
SWIDTH 308 0
DWIDTH 6 0
BBX 6 14 1 0
BITMAP
D8
70
00
00
DC
E4
C0
C0
C0
C0
C0
C0
C0
C0
ENDCHAR
STARTCHAR 015A
ENCODING 346
SWIDTH 565 0
DWIDTH 11 0
BBX 10 18 1 0
BITMAP
0300
0600
0400
0000
1E00
7F00
6180
C080
C000
6000
7C00
0F00
0180
00C0
C0C0
C080
7380
3F00
ENDCHAR
STARTCHAR 015B
ENCODING 347
SWIDTH 462 0
DWIDTH 9 0
BBX 8 15 1 0
BITMAP
04
0C
08
00
00
7E
C2
C3
C0
7C
06
03
C3
66
3C
ENDCHAR
STARTCHAR 015E
ENCODING 350
SWIDTH 565 0
DWIDTH 11 0
BBX 10 19 1 -5
BITMAP
1E00
7F00
6180
C080
C000
6000
7C00
0F00
0180
00C0
C0C0
C080
7380
3F00
0800
0E00
0200
0200
0E00
ENDCHAR
STARTCHAR 015F
ENCODING 351
SWIDTH 462 0
DWIDTH 9 0
BBX 8 15 1 -4
BITMAP
7E
C2
C3
C0
7C
06
03
C3
E6
3C
10
1C
02
04
1C
ENDCHAR
STARTCHAR 0160
ENCODING 352
SWIDTH 565 0
DWIDTH 11 0
BBX 10 18 1 0
BITMAP
3100
1A00
0C00
0000
1E00
7F00
6180
C080
C000
6000
7C00
0F00
0180
00C0
C0C0
C080
7380
3F00
ENDCHAR
STARTCHAR 0161
ENCODING 353
SWIDTH 462 0
DWIDTH 9 0
BBX 8 15 1 0
BITMAP
42
24
38
00
00
7E
C2
C3
C0
7C
06
03
C3
66
3C
ENDCHAR
STARTCHAR 0162
ENCODING 354
SWIDTH 565 0
DWIDTH 11 0
BBX 10 19 1 -5
BITMAP
FFC0
FFC0
0C00
0C00
0C00
0C00
0C00
0C00
0C00
0C00
0C00
0C00
0C00
0C00
0800
0C00
0200
0200
0C00
ENDCHAR
STARTCHAR 0163
ENCODING 355
SWIDTH 360 0
DWIDTH 7 0
BBX 6 19 1 -5
BITMAP
20
20
20
20
FC
20
20
20
20
20
20
20
20
3C
10
18
04
04
18
ENDCHAR
STARTCHAR 0164
ENCODING 356
SWIDTH 565 0
DWIDTH 11 0
BBX 10 18 1 0
BITMAP
2300
1600
1C00
0000
FFC0
FFC0
0C00
0C00
0C00
0C00
0C00
0C00
0C00
0C00
0C00
0C00
0C00
0C00
ENDCHAR
STARTCHAR 0165
ENCODING 357
SWIDTH 462 0
DWIDTH 9 0
BBX 8 15 1 0
BITMAP
03
23
21
21
22
FC
20
20
20
20
20
20
20
20
3C
ENDCHAR
STARTCHAR 0166
ENCODING 358
SWIDTH 565 0
DWIDTH 11 0
BBX 10 14 1 0
BITMAP
FFC0
FFC0
0C00
0C00
0C00
0C00
7F80
0C00
0C00
0C00
0C00
0C00
0C00
0C00
ENDCHAR
STARTCHAR 0167
ENCODING 359
SWIDTH 360 0
DWIDTH 7 0
BBX 6 14 1 0
BITMAP
20
20
20
20
FC
20
20
20
FC
20
20
20
30
3C
ENDCHAR
STARTCHAR 0168
ENCODING 360
SWIDTH 668 0
DWIDTH 13 0
BBX 11 18 1 0
BITMAP
0900
1F00
1200
0000
C060
C060
C060
C060
C060
C060
C060
C060
C060
C060
4060
60C0
39C0
1F80
ENDCHAR
STARTCHAR 0169
ENCODING 361
SWIDTH 565 0
DWIDTH 11 0
BBX 9 14 1 0
BITMAP
3A00
2600
0000
0000
C080
C080
C080
C080
C080
C080
C080
6180
7280
3C80
ENDCHAR
STARTCHAR 016A
ENCODING 362
SWIDTH 668 0
DWIDTH 13 0
BBX 11 16 1 0
BITMAP
1F00
0000
C060
C060
C060
C060
C060
C060
C060
C060
C060
C060
4060
60C0
39C0
1F80
ENDCHAR
STARTCHAR 016B
ENCODING 363
SWIDTH 565 0
DWIDTH 11 0
BBX 9 13 1 0
BITMAP
3F00
0000
0000
C080
C080
C080
C080
C080
C080
C080
6180
7280
3C80
ENDCHAR
STARTCHAR 016E
ENCODING 366
SWIDTH 668 0
DWIDTH 13 0
BBX 11 19 1 0
BITMAP
0400
0A00
0A00
0600
0000
C060
C060
C060
C060
C060
C060
C060
C060
C060
C060
4060
60C0
39C0
1F80
ENDCHAR
STARTCHAR 016F
ENCODING 367
SWIDTH 565 0
DWIDTH 11 0
BBX 9 15 1 0
BITMAP
1C00
1400
1C00
0000
0000
C080
C080
C080
C080
C080
C080
C080
6180
7280
3C80
ENDCHAR
STARTCHAR 0172
ENCODING 370
SWIDTH 668 0
DWIDTH 13 0
BBX 11 17 1 -3
BITMAP
C060
C060
C060
C060
C060
C060
C060
C060
C060
C060
4060
60C0
39C0
1F80
0400
0800
0E00
ENDCHAR
STARTCHAR 0173
ENCODING 371
SWIDTH 565 0
DWIDTH 11 0
BBX 10 13 1 -3
BITMAP
C080
C080
C080
C080
C080
C080
C080
6180
7280
3C80
0100
0100
01C0
ENDCHAR
STARTCHAR 0174
ENCODING 372
SWIDTH 977 0
DWIDTH 19 0
BBX 19 18 0 0
BITMAP
006000
00A000
019000
000000
C04060
406060
60E040
60E040
60B0C0
21B0C0
319080
311980
331980
130980
1A0D00
1E0F00
0E0700
0C0600
ENDCHAR
STARTCHAR 0175
ENCODING 373
SWIDTH 771 0
DWIDTH 15 0
BBX 14 14 1 0
BITMAP
0700
0480
0840
0000
830C
C30C
C78C
4788
6498
6C98
2CD0
2850
3870
3870
ENDCHAR
STARTCHAR 0176
ENCODING 374
SWIDTH 565 0
DWIDTH 11 0
BBX 10 18 1 0
BITMAP
0C00
1E00
3300
0000
C0C0
C0C0
6180
6180
3300
3300
1E00
1E00
0C00
0C00
0C00
0C00
0C00
0C00
ENDCHAR
STARTCHAR 0177
ENCODING 375
SWIDTH 514 0
DWIDTH 10 0
BBX 9 18 1 -4
BITMAP
1C00
2600
4000
0000
C180
C100
4300
6200
6600
2600
3400
1C00
1800
1800
1800
3000
3000
E000
ENDCHAR
STARTCHAR 0178
ENCODING 376
SWIDTH 565 0
DWIDTH 11 0
BBX 10 18 1 0
BITMAP
3200
3300
0000
0000
C0C0
C0C0
6180
6180
3300
3300
1E00
1E00
0C00
0C00
0C00
0C00
0C00
0C00
ENDCHAR
STARTCHAR 0179
ENCODING 377
SWIDTH 565 0
DWIDTH 11 0
BBX 10 18 1 0
BITMAP
0300
0600
0400
0000
FFC0
FFC0
0180
0380
0300
0600
0C00
0C00
1800
3000
6000
6000
FFC0
FFC0
ENDCHAR
STARTCHAR 017A
ENCODING 378
SWIDTH 462 0
DWIDTH 9 0
BBX 8 15 1 0
BITMAP
06
0C
08
00
00
FF
03
06
0C
18
10
30
60
C0
FF
ENDCHAR
STARTCHAR 017B
ENCODING 379
SWIDTH 565 0
DWIDTH 11 0
BBX 10 18 1 0
BITMAP
0C00
0C00
0000
0000
FFC0
FFC0
0180
0380
0300
0600
0C00
0C00
1800
3000
6000
6000
FFC0
FFC0
ENDCHAR
STARTCHAR 017C
ENCODING 380
SWIDTH 462 0
DWIDTH 9 0
BBX 8 14 1 0
BITMAP
18
18
00
00
FF
03
06
0C
18
10
30
60
C0
FF
ENDCHAR
STARTCHAR 017D
ENCODING 381
SWIDTH 565 0
DWIDTH 11 0
BBX 10 18 1 0
BITMAP
3300
1600
0C00
0000
FFC0
FFC0
0180
0380
0300
0600
0C00
0C00
1800
3000
6000
6000
FFC0
FFC0
ENDCHAR
STARTCHAR 017E
ENCODING 382
SWIDTH 462 0
DWIDTH 9 0
BBX 8 14 1 0
BITMAP
66
3C
00
00
FF
03
06
0C
18
10
30
60
C0
FF
ENDCHAR
STARTCHAR 01A0
ENCODING 416
SWIDTH 720 0
DWIDTH 14 0
BBX 12 15 1 0
BITMAP
0020
0FE0
3FC0
7060
6030
C030
C030
C030
C030
C030
C030
6030
6060
39C0
1F80
ENDCHAR
STARTCHAR 01A1
ENCODING 417
SWIDTH 565 0
DWIDTH 11 0
BBX 10 12 1 0
BITMAP
00C0
00C0
3F80
6180
C180
C080
C0C0
C0C0
C080
4180
7300
3E00
ENDCHAR
STARTCHAR 01AF
ENCODING 431
SWIDTH 668 0
DWIDTH 13 0
BBX 13 15 1 0
BITMAP
0008
C078
C060
C060
C060
C060
C060
C060
C060
C060
C060
4060
60C0
39C0
1F80
ENDCHAR
STARTCHAR 01B0
ENCODING 432
SWIDTH 565 0
DWIDTH 11 0
BBX 12 12 1 0
BITMAP
0030
0020
C0C0
C080
C080
C080
C080
C080
C080
6180
7280
3C80
ENDCHAR
STARTCHAR 02C6
ENCODING 710
SWIDTH 411 0
DWIDTH 8 0
BBX 6 2 1 12
BITMAP
78
CC
ENDCHAR
STARTCHAR 02C7
ENCODING 711
SWIDTH 360 0
DWIDTH 7 0
BBX 6 2 1 12
BITMAP
CC
70
ENDCHAR
STARTCHAR 02D8
ENCODING 728
SWIDTH 360 0
DWIDTH 7 0
BBX 6 2 1 12
BITMAP
8C
78
ENDCHAR
STARTCHAR 02D9
ENCODING 729
SWIDTH 154 0
DWIDTH 3 0
BBX 2 2 1 12
BITMAP
C0
80
ENDCHAR
STARTCHAR 02DA
ENCODING 730
SWIDTH 205 0
DWIDTH 4 0
BBX 3 3 1 12
BITMAP
E0
A0
E0
ENDCHAR
STARTCHAR 02DB
ENCODING 731
SWIDTH 205 0
DWIDTH 4 0
BBX 3 4 1 -4
BITMAP
C0
80
80
60
ENDCHAR
STARTCHAR 02DC
ENCODING 732
SWIDTH 360 0
DWIDTH 7 0
BBX 5 2 1 12
BITMAP
E8
98
ENDCHAR
STARTCHAR 0300
ENCODING 768
SWIDTH 0 0
DWIDTH 0 0
BBX 3 4 -4 12
BITMAP
80
C0
40
20
ENDCHAR
STARTCHAR 0301
ENCODING 769
SWIDTH 0 0
DWIDTH 0 0
BBX 4 4 -4 12
BITMAP
30
20
60
C0
ENDCHAR
STARTCHAR 0302
ENCODING 770
SWIDTH 0 0
DWIDTH 0 0
BBX 5 2 -6 12
BITMAP
70
D8
ENDCHAR
STARTCHAR 0303
ENCODING 771
SWIDTH 0 0
DWIDTH 0 0
BBX 5 2 -6 12
BITMAP
E8
98
ENDCHAR
STARTCHAR 0304
ENCODING 772
SWIDTH 0 0
DWIDTH 0 0
BBX 6 1 -7 12
BITMAP
FC
ENDCHAR
STARTCHAR 0306
ENCODING 774
SWIDTH 0 0
DWIDTH 0 0
BBX 6 2 -7 12
BITMAP
C4
78
ENDCHAR
STARTCHAR 0307
ENCODING 775
SWIDTH 0 0
DWIDTH 0 0
BBX 2 2 -3 12
BITMAP
C0
80
ENDCHAR
STARTCHAR 0308
ENCODING 776
SWIDTH 0 0
DWIDTH 0 0
BBX 6 2 -7 12
BITMAP
CC
C8
ENDCHAR
STARTCHAR 0309
ENCODING 777
SWIDTH 0 0
DWIDTH 0 0
BBX 4 4 -5 12
BITMAP
60
D0
10
20
ENDCHAR
STARTCHAR 030A
ENCODING 778
SWIDTH 0 0
DWIDTH 0 0
BBX 3 3 -4 12
BITMAP
E0
A0
E0
ENDCHAR
STARTCHAR 030C
ENCODING 780
SWIDTH 0 0
DWIDTH 0 0
BBX 6 2 -7 12
BITMAP
CC
78
ENDCHAR
STARTCHAR 031B
ENCODING 795
SWIDTH 0 0
DWIDTH 0 0
BBX 3 2 -4 11
BITMAP
20
E0
ENDCHAR
STARTCHAR 0323
ENCODING 803
SWIDTH 0 0
DWIDTH 0 0
BBX 2 2 -2 -4
BITMAP
80
C0
ENDCHAR
STARTCHAR 0327
ENCODING 807
SWIDTH 0 0
DWIDTH 0 0
BBX 3 5 -4 -5
BITMAP
80
E0
20
20
E0
ENDCHAR
STARTCHAR 0328
ENCODING 808
SWIDTH 0 0
DWIDTH 0 0
BBX 3 4 -4 -4
BITMAP
60
C0
C0
60
ENDCHAR
STARTCHAR 1E80
ENCODING 7808
SWIDTH 977 0
DWIDTH 19 0
BBX 19 18 0 0
BITMAP
018000
008000
004000
000000
C04060
406060
60E040
60E040
60B0C0
21B0C0
319080
311980
331980
130980
1A0D00
1E0F00
0E0700
0C0600
ENDCHAR
STARTCHAR 1E81
ENCODING 7809
SWIDTH 771 0
DWIDTH 15 0
BBX 14 15 1 0
BITMAP
0C00
0600
0200
0000
0000
830C
C30C
C78C
4788
6498
6C98
2CD0
2850
3870
3870
ENDCHAR
STARTCHAR 1E82
ENCODING 7810
SWIDTH 977 0
DWIDTH 19 0
BBX 19 18 0 0
BITMAP
003000
002000
006000
000000
C04060
406060
60E040
60E040
60B0C0
21B0C0
319080
311980
331980
130980
1A0D00
1E0F00
0E0700
0C0600
ENDCHAR
STARTCHAR 1E83
ENCODING 7811
SWIDTH 771 0
DWIDTH 15 0
BBX 14 15 1 0
BITMAP
00C0
0180
0100
0000
0000
830C
C30C
C78C
4788
6498
6C98
2CD0
2850
3870
3870
ENDCHAR
STARTCHAR 1E84
ENCODING 7812
SWIDTH 977 0
DWIDTH 19 0
BBX 19 18 0 0
BITMAP
011000
01B800
000000
000000
C04060
406060
60E040
60E040
60B0C0
21B0C0
319080
311980
331980
130980
1A0D00
1E0F00
0E0700
0C0600
ENDCHAR
STARTCHAR 1E85
ENCODING 7813
SWIDTH 771 0
DWIDTH 15 0
BBX 14 14 1 0
BITMAP
0CC0
0CC0
0000
0000
830C
C30C
C78C
4788
6498
6C98
2CD0
2850
3870
3870
ENDCHAR
STARTCHAR 1EA0
ENCODING 7840
SWIDTH 668 0
DWIDTH 13 0
BBX 11 18 1 -4
BITMAP
0400
0E00
0E00
0B00
1B00
1100
1180
3180
2080
7FC0
6040
4060
C060
C020
0000
0000
0400
0600
ENDCHAR
STARTCHAR 1EA1
ENCODING 7841
SWIDTH 617 0
DWIDTH 12 0
BBX 10 15 1 -4
BITMAP
0800
3EC0
61C0
C1C0
C0C0
C0C0
C0C0
C0C0
C1C0
72C0
3CC0
0000
0000
0C00
0C00
ENDCHAR
STARTCHAR 1EA2
ENCODING 7842
SWIDTH 668 0
DWIDTH 13 0
BBX 11 19 1 0
BITMAP
0400
0B00
0300
0600
0000
0400
0E00
0E00
0B00
1B00
1100
1180
3180
2080
7FC0
6040
4060
C060
C020
ENDCHAR
STARTCHAR 1EA3
ENCODING 7843
SWIDTH 617 0
DWIDTH 12 0
BBX 10 15 1 0
BITMAP
1E00
0200
0600
0000
0800
3EC0
61C0
C1C0
C0C0
C0C0
C0C0
C0C0
C1C0
72C0
3CC0
ENDCHAR
STARTCHAR 1EA4
ENCODING 7844
SWIDTH 668 0
DWIDTH 13 0
BBX 11 21 1 0
BITMAP
0020
0060
0040
0680
0A00
1900
0000
0400
0E00
0E00
0B00
1B00
1100
1180
3180
2080
7FC0
6040
4060
C060
C020
ENDCHAR
STARTCHAR 1EA5
ENCODING 7845
SWIDTH 617 0
DWIDTH 12 0
BBX 10 17 1 0
BITMAP
0040
00C0
0080
1C00
1200
2100
0800
3EC0
61C0
C1C0
C0C0
C0C0
C0C0
C0C0
C1C0
72C0
3CC0
ENDCHAR
STARTCHAR 1EA6
ENCODING 7846
SWIDTH 668 0
DWIDTH 13 0
BBX 11 21 1 0
BITMAP
0300
0100
0180
0680
0A00
1900
0000
0400
0E00
0E00
0B00
1B00
1100
1180
3180
2080
7FC0
6040
4060
C060
C020
ENDCHAR
STARTCHAR 1EA7
ENCODING 7847
SWIDTH 617 0
DWIDTH 12 0
BBX 10 17 1 0
BITMAP
0600
0300
0100
1C00
1200
2100
0800
3EC0
61C0
C1C0
C0C0
C0C0
C0C0
C0C0
C1C0
72C0
3CC0
ENDCHAR
STARTCHAR 1EA8
ENCODING 7848
SWIDTH 668 0
DWIDTH 13 0
BBX 11 21 1 0
BITMAP
01C0
0160
0040
0680
0A00
1900
0000
0400
0E00
0E00
0B00
1B00
1100
1180
3180
2080
7FC0
6040
4060
C060
C020
ENDCHAR
STARTCHAR 1EA9
ENCODING 7849
SWIDTH 617 0
DWIDTH 12 0
BBX 10 18 1 0
BITMAP
0180
0240
0040
0080
1C00
1200
2100
0800
3EC0
61C0
C1C0
C0C0
C0C0
C0C0
C0C0
C1C0
72C0
3CC0
ENDCHAR
STARTCHAR 1EAA
ENCODING 7850
SWIDTH 668 0
DWIDTH 13 0
BBX 11 21 1 0
BITMAP
0900
1F00
1200
0600
0A00
1900
0000
0400
0E00
0E00
0B00
1B00
1100
1180
3180
2080
7FC0
6040
4060
C060
C020
ENDCHAR
STARTCHAR 1EAB
ENCODING 7851
SWIDTH 617 0
DWIDTH 12 0
BBX 10 17 1 0
BITMAP
1900
2600
0000
1C00
1200
2100
0800
3EC0
61C0
C1C0
C0C0
C0C0
C0C0
C0C0
C1C0
72C0
3CC0
ENDCHAR
STARTCHAR 1EAC
ENCODING 7852
SWIDTH 668 0
DWIDTH 13 0
BBX 11 22 1 -4
BITMAP
0600
0A00
1900
0000
0400
0E00
0E00
0B00
1B00
1100
1180
3180
2080
7FC0
6040
4060
C060
C020
0000
0000
0400
0600
ENDCHAR
STARTCHAR 1EAD
ENCODING 7853
SWIDTH 617 0
DWIDTH 12 0
BBX 10 18 1 -4
BITMAP
1C00
1200
2100
0800
3EC0
61C0
C1C0
C0C0
C0C0
C0C0
C0C0
C1C0
72C0
3CC0
0000
0000
0C00
0C00
ENDCHAR
STARTCHAR 1EAE
ENCODING 7854
SWIDTH 668 0
DWIDTH 13 0
BBX 11 21 1 0
BITMAP
0100
0300
0600
0000
1100
0E00
0000
0400
0E00
0E00
0B00
1B00
1100
1180
3180
2080
7FC0
6040
4060
C060
C020
ENDCHAR
STARTCHAR 1EAF
ENCODING 7855
SWIDTH 617 0
DWIDTH 12 0
BBX 10 18 1 0
BITMAP
0300
0200
0400
0C00
2100
1E00
0000
0800
3EC0
61C0
C1C0
C0C0
C0C0
C0C0
C0C0
C1C0
72C0
3CC0
ENDCHAR
STARTCHAR 1EB0
ENCODING 7856
SWIDTH 668 0
DWIDTH 13 0
BBX 11 21 1 0
BITMAP
1800
0800
0C00
0000
1100
0E00
0000
0400
0E00
0E00
0B00
1B00
1100
1180
3180
2080
7FC0
6040
4060
C060
C020
ENDCHAR
STARTCHAR 1EB1
ENCODING 7857
SWIDTH 617 0
DWIDTH 12 0
BBX 10 18 1 0
BITMAP
3000
1000
0800
0C00
2100
1E00
0000
0800
3EC0
61C0
C1C0
C0C0
C0C0
C0C0
C0C0
C1C0
72C0
3CC0
ENDCHAR
STARTCHAR 1EB2
ENCODING 7858
SWIDTH 668 0
DWIDTH 13 0
BBX 11 21 1 0
BITMAP
0E00
0300
0200
0400
1100
0E00
0000
0400
0E00
0E00
0B00
1B00
1100
1180
3180
2080
7FC0
6040
4060
C060
C020
ENDCHAR
STARTCHAR 1EB3
ENCODING 7859
SWIDTH 617 0
DWIDTH 12 0
BBX 10 18 1 0
BITMAP
1E00
1200
0600
0C00
2100
1E00
0000
0800
3EC0
61C0
C1C0
C0C0
C0C0
C0C0
C0C0
C1C0
72C0
3CC0
ENDCHAR
STARTCHAR 1EB4
ENCODING 7860
SWIDTH 668 0
DWIDTH 13 0
BBX 11 20 1 0
BITMAP
1D00
1300
0000
1100
0E00
0000
0400
0E00
0E00
0B00
1B00
1100
1180
3180
2080
7FC0
6040
4060
C060
C020
ENDCHAR
STARTCHAR 1EB5
ENCODING 7861
SWIDTH 617 0
DWIDTH 12 0
BBX 10 17 1 0
BITMAP
1900
2600
0000
2100
1E00
0000
0800
3EC0
61C0
C1C0
C0C0
C0C0
C0C0
C0C0
C1C0
72C0
3CC0
ENDCHAR
STARTCHAR 1EB6
ENCODING 7862
SWIDTH 668 0
DWIDTH 13 0
BBX 11 21 1 -4
BITMAP
1100
0E00
0000
0400
0E00
0E00
0B00
1B00
1100
1180
3180
2080
7FC0
6040
4060
C060
C020
0000
0000
0400
0600
ENDCHAR
STARTCHAR 1EB7
ENCODING 7863
SWIDTH 617 0
DWIDTH 12 0
BBX 10 18 1 -4
BITMAP
2100
1E00
0000
0800
3EC0
61C0
C1C0
C0C0
C0C0
C0C0
C0C0
C1C0
72C0
3CC0
0000
0000
0C00
0C00
ENDCHAR
STARTCHAR 1EB8
ENCODING 7864
SWIDTH 565 0
DWIDTH 11 0
BBX 9 18 1 -4
BITMAP
FF80
FF80
C000
C000
C000
C000
FF00
FF00
C000
C000
C000
C000
FF80
FF80
0000
0000
0800
0C00
ENDCHAR
STARTCHAR 1EB9
ENCODING 7865
SWIDTH 565 0
DWIDTH 11 0
BBX 9 14 1 -3
BITMAP
3F00
6180
C180
C080
FF80
C000
C000
4180
7300
3E00
0000
0000
0C00
0C00
ENDCHAR
STARTCHAR 1EBA
ENCODING 7866
SWIDTH 565 0
DWIDTH 11 0
BBX 9 19 1 0
BITMAP
0800
1600
0600
0C00
0000
FF80
FF80
C000
C000
C000
C000
FF00
FF00
C000
C000
C000
C000
FF80
FF80
ENDCHAR
STARTCHAR 1EBB
ENCODING 7867
SWIDTH 565 0
DWIDTH 11 0
BBX 9 15 1 0
BITMAP
1E00
0200
0400
0000
0000
3F00
6180
C180
C080
FF80
C000
C000
4180
7300
3E00
ENDCHAR
STARTCHAR 1EBC
ENCODING 7868
SWIDTH 565 0
DWIDTH 11 0
BBX 9 18 1 0
BITMAP
1200
3E00
2400
0000
FF80
FF80
C000
C000
C000
C000
FF00
FF00
C000
C000
C000
C000
FF80
FF80
ENDCHAR
STARTCHAR 1EBD
ENCODING 7869
SWIDTH 565 0
DWIDTH 11 0
BBX 9 14 1 0
BITMAP
3B00
2600
0000
0000
3F00
6180
C180
C080
FF80
C000
C000
4180
7300
3E00
ENDCHAR
STARTCHAR 1EBE
ENCODING 7870
SWIDTH 565 0
DWIDTH 11 0
BBX 10 21 1 0
BITMAP
0040
00C0
0080
0D00
1400
3200
0000
FF80
FF80
C000
C000
C000
C000
FF00
FF00
C000
C000
C000
C000
FF80
FF80
ENDCHAR
STARTCHAR 1EBF
ENCODING 7871
SWIDTH 565 0
DWIDTH 11 0
BBX 10 17 1 0
BITMAP
0040
00C0
0180
1C00
3200
0100
0000
3F00
6180
C180
C080
FF80
C000
C000
4180
7300
3E00
ENDCHAR
STARTCHAR 1EC0
ENCODING 7872
SWIDTH 565 0
DWIDTH 11 0
BBX 9 21 1 0
BITMAP
0600
0200
0300
0D00
1400
3200
0000
FF80
FF80
C000
C000
C000
C000
FF00
FF00
C000
C000
C000
C000
FF80
FF80
ENDCHAR
STARTCHAR 1EC1
ENCODING 7873
SWIDTH 565 0
DWIDTH 11 0
BBX 9 17 1 0
BITMAP
0600
0300
0100
1C00
3200
0100
0000
3F00
6180
C180
C080
FF80
C000
C000
4180
7300
3E00
ENDCHAR
STARTCHAR 1EC2
ENCODING 7874
SWIDTH 565 0
DWIDTH 11 0
BBX 10 21 1 0
BITMAP
0380
02C0
0080
0D00
1400
3200
0000
FF80
FF80
C000
C000
C000
C000
FF00
FF00
C000
C000
C000
C000
FF80
FF80
ENDCHAR
STARTCHAR 1EC3
ENCODING 7875
SWIDTH 565 0
DWIDTH 11 0
BBX 10 18 1 0
BITMAP
0180
02C0
0040
0180
1C00
3200
0100
0000
3F00
6180
C180
C080
FF80
C000
C000
4180
7300
3E00
ENDCHAR
STARTCHAR 1EC4
ENCODING 7876
SWIDTH 565 0
DWIDTH 11 0
BBX 9 21 1 0
BITMAP
1200
3E00
2400
0C00
1400
3200
0000
FF80
FF80
C000
C000
C000
C000
FF00
FF00
C000
C000
C000
C000
FF80
FF80
ENDCHAR
STARTCHAR 1EC5
ENCODING 7877
SWIDTH 565 0
DWIDTH 11 0
BBX 9 17 1 0
BITMAP
3B00
2600
0000
1C00
3200
0100
0000
3F00
6180
C180
C080
FF80
C000
C000
4180
7300
3E00
ENDCHAR
STARTCHAR 1EC6
ENCODING 7878
SWIDTH 565 0
DWIDTH 11 0
BBX 9 22 1 -4
BITMAP
0C00
1400
3200
0000
FF80
FF80
C000
C000
C000
C000
FF00
FF00
C000
C000
C000
C000
FF80
FF80
0000
0000
0800
0C00
ENDCHAR
STARTCHAR 1EC7
ENCODING 7879
SWIDTH 565 0
DWIDTH 11 0
BBX 9 18 1 -4
BITMAP
1C00
3200
0100
0000
3F00
6180
C180
C080
FF80
C000
C000
4180
7300
3E00
0000
0000
0C00
0C00
ENDCHAR
STARTCHAR 1EC8
ENCODING 7880
SWIDTH 205 0
DWIDTH 4 0
BBX 4 19 0 0
BITMAP
20
D0
10
30
00
20
20
20
20
20
20
20
20
20
20
20
20
20
20
ENDCHAR
STARTCHAR 1EC9
ENCODING 7881
SWIDTH 205 0
DWIDTH 4 0
BBX 3 15 1 0
BITMAP
E0
20
20
40
00
40
40
40
40
40
40
40
40
40
40
ENDCHAR
STARTCHAR 1ECA
ENCODING 7882
SWIDTH 205 0
DWIDTH 4 0
BBX 2 18 1 -4
BITMAP
40
40
40
40
40
40
40
40
40
40
40
40
40
40
00
00
40
C0
ENDCHAR
STARTCHAR 1ECB
ENCODING 7883
SWIDTH 205 0
DWIDTH 4 0
BBX 3 18 1 -4
BITMAP
C0
40
00
00
40
40
40
40
40
40
40
40
40
40
00
00
40
E0
ENDCHAR
STARTCHAR 1ECC
ENCODING 7884
SWIDTH 720 0
DWIDTH 14 0
BBX 12 18 1 -4
BITMAP
0F00
3FC0
7060
6030
C030
C030
C030
C030
C030
C030
6030
6060
39C0
1F80
0000
0000
0600
0600
ENDCHAR
STARTCHAR 1ECD
ENCODING 7885
SWIDTH 565 0
DWIDTH 11 0
BBX 10 14 1 -3
BITMAP
3F00
6180
C180
C080
C0C0
C0C0
C080
4180
7300
3E00
0000
0000
0C00
0C00
ENDCHAR
STARTCHAR 1ECE
ENCODING 7886
SWIDTH 720 0
DWIDTH 14 0
BBX 12 19 1 0
BITMAP
0600
0D00
0100
0200
0000
0F00
3FC0
7060
6030
C030
C030
C030
C030
C030
C030
6030
6060
39C0
1F80
ENDCHAR
STARTCHAR 1ECF
ENCODING 7887
SWIDTH 565 0
DWIDTH 11 0
BBX 10 15 1 0
BITMAP
1E00
0200
0400
0000
0000
3F00
6180
C180
C080
C0C0
C0C0
C080
4180
7300
3E00
ENDCHAR
STARTCHAR 1ED0
ENCODING 7888
SWIDTH 720 0
DWIDTH 14 0
BBX 12 21 1 0
BITMAP
0030
0020
0060
0640
0F00
1980
0000
0F00
3FC0
7060
6030
C030
C030
C030
C030
C030
C030
6030
6060
39C0
1F80
ENDCHAR
STARTCHAR 1ED1
ENCODING 7889
SWIDTH 565 0
DWIDTH 11 0
BBX 10 17 1 0
BITMAP
0040
00C0
0180
1C00
3200
0100
0000
3F00
6180
C180
C080
C0C0
C0C0
C080
4180
7300
3E00
ENDCHAR
STARTCHAR 1ED2
ENCODING 7890
SWIDTH 720 0
DWIDTH 14 0
BBX 12 21 1 0
BITMAP
0300
0180
0080
06C0
0F00
1980
0000
0F00
3FC0
7060
6030
C030
C030
C030
C030
C030
C030
6030
6060
39C0
1F80
ENDCHAR
STARTCHAR 1ED3
ENCODING 7891
SWIDTH 565 0
DWIDTH 11 0
BBX 10 17 1 0
BITMAP
0600
0300
0100
1C00
3200
0100
0000
3F00
6180
C180
C080
C0C0
C0C0
C080
4180
7300
3E00
ENDCHAR
STARTCHAR 1ED4
ENCODING 7892
SWIDTH 720 0
DWIDTH 14 0
BBX 12 21 1 0
BITMAP
00E0
0120
0020
0640
0F00
1980
0000
0F00
3FC0
7060
6030
C030
C030
C030
C030
C030
C030
6030
6060
39C0
1F80
ENDCHAR
STARTCHAR 1ED5
ENCODING 7893
SWIDTH 565 0
DWIDTH 11 0
BBX 10 18 1 0
BITMAP
0180
02C0
0040
0180
1C00
3200
0100
0000
3F00
6180
C180
C080
C0C0
C0C0
C080
4180
7300
3E00
ENDCHAR
STARTCHAR 1ED6
ENCODING 7894
SWIDTH 720 0
DWIDTH 14 0
BBX 12 21 1 0
BITMAP
0C80
0F80
1100
0600
0F00
1980
0000
0F00
3FC0
7060
6030
C030
C030
C030
C030
C030
C030
6030
6060
39C0
1F80
ENDCHAR
STARTCHAR 1ED7
ENCODING 7895
SWIDTH 565 0
DWIDTH 11 0
BBX 10 17 1 0
BITMAP
3B00
2600
0000
1C00
3200
0100
0000
3F00
6180
C180
C080
C0C0
C0C0
C080
4180
7300
3E00
ENDCHAR
STARTCHAR 1ED8
ENCODING 7896
SWIDTH 720 0
DWIDTH 14 0
BBX 12 22 1 -4
BITMAP
0600
0F00
1980
0000
0F00
3FC0
7060
6030
C030
C030
C030
C030
C030
C030
6030
6060
39C0
1F80
0000
0000
0600
0600
ENDCHAR
STARTCHAR 1ED9
ENCODING 7897
SWIDTH 565 0
DWIDTH 11 0
BBX 10 18 1 -4
BITMAP
1C00
3200
0100
0000
3F00
6180
C180
C080
C0C0
C0C0
C080
4180
7300
3E00
0000
0000
0C00
0C00
ENDCHAR
STARTCHAR 1EDA
ENCODING 7898
SWIDTH 720 0
DWIDTH 14 0
BBX 12 18 1 0
BITMAP
0180
0300
0200
0020
0FE0
3FC0
7060
6030
C030
C030
C030
C030
C030
C030
6030
6060
39C0
1F80
ENDCHAR
STARTCHAR 1EDB
ENCODING 7899
SWIDTH 565 0
DWIDTH 11 0
BBX 10 15 1 0
BITMAP
0200
0600
0400
00C0
00C0
3F80
6180
C180
C080
C0C0
C0C0
C080
4180
7300
3E00
ENDCHAR
STARTCHAR 1EDC
ENCODING 7900
SWIDTH 720 0
DWIDTH 14 0
BBX 12 18 1 0
BITMAP
0800
0C00
0400
0020
0FE0
3FC0
7060
6030
C030
C030
C030
C030
C030
C030
6030
6060
39C0
1F80
ENDCHAR
STARTCHAR 1EDD
ENCODING 7901
SWIDTH 565 0
DWIDTH 11 0
BBX 10 15 1 0
BITMAP
3000
1000
1800
00C0
00C0
3F80
6180
C180
C080
C0C0
C0C0
C080
4180
7300
3E00
ENDCHAR
STARTCHAR 1EDE
ENCODING 7902
SWIDTH 720 0
DWIDTH 14 0
BBX 12 19 1 0
BITMAP
0600
0D00
0100
0200
0020
0FE0
3FC0
7060
6030
C030
C030
C030
C030
C030
C030
6030
6060
39C0
1F80
ENDCHAR
STARTCHAR 1EDF
ENCODING 7903
SWIDTH 565 0
DWIDTH 11 0
BBX 10 15 1 0
BITMAP
1E00
0200
0400
00C0
00C0
3F80
6180
C180
C080
C0C0
C0C0
C080
4180
7300
3E00
ENDCHAR
STARTCHAR 1EE0
ENCODING 7904
SWIDTH 720 0
DWIDTH 14 0
BBX 12 18 1 0
BITMAP
0080
0F80
1100
0020
0FE0
3FC0
7060
6030
C030
C030
C030
C030
C030
C030
6030
6060
39C0
1F80
ENDCHAR
STARTCHAR 1EE1
ENCODING 7905
SWIDTH 565 0
DWIDTH 11 0
BBX 10 14 1 0
BITMAP
3B00
2600
00C0
00C0
3F80
6180
C180
C080
C0C0
C0C0
C080
4180
7300
3E00
ENDCHAR
STARTCHAR 1EE2
ENCODING 7906
SWIDTH 720 0
DWIDTH 14 0
BBX 12 19 1 -4
BITMAP
0020
0FE0
3FC0
7060
6030
C030
C030
C030
C030
C030
C030
6030
6060
39C0
1F80
0000
0000
0600
0600
ENDCHAR
STARTCHAR 1EE3
ENCODING 7907
SWIDTH 565 0
DWIDTH 11 0
BBX 10 16 1 -4
BITMAP
00C0
00C0
3F80
6180
C180
C080
C0C0
C0C0
C080
4180
7300
3E00
0000
0000
0C00
0C00
ENDCHAR
STARTCHAR 1EE4
ENCODING 7908
SWIDTH 668 0
DWIDTH 13 0
BBX 11 18 1 -4
BITMAP
C060
C060
C060
C060
C060
C060
C060
C060
C060
C060
4060
60C0
39C0
1F80
0000
0000
0400
0600
ENDCHAR
STARTCHAR 1EE5
ENCODING 7909
SWIDTH 565 0
DWIDTH 11 0
BBX 9 14 1 -4
BITMAP
C080
C080
C080
C080
C080
C080
C080
6180
7280
3C80
0000
0000
0800
0C00
ENDCHAR
STARTCHAR 1EE6
ENCODING 7910
SWIDTH 668 0
DWIDTH 13 0
BBX 11 19 1 0
BITMAP
0400
0B00
0300
0600
0000
C060
C060
C060
C060
C060
C060
C060
C060
C060
C060
4060
60C0
39C0
1F80
ENDCHAR
STARTCHAR 1EE7
ENCODING 7911
SWIDTH 565 0
DWIDTH 11 0
BBX 9 15 1 0
BITMAP
1C00
0600
0400
0800
0000
C080
C080
C080
C080
C080
C080
C080
6180
7280
3C80
ENDCHAR
STARTCHAR 1EE8
ENCODING 7912
SWIDTH 668 0
DWIDTH 13 0
BBX 13 18 1 0
BITMAP
0300
0200
0600
0008
C078
C060
C060
C060
C060
C060
C060
C060
C060
C060
4060
60C0
39C0
1F80
ENDCHAR
STARTCHAR 1EE9
ENCODING 7913
SWIDTH 565 0
DWIDTH 11 0
BBX 12 15 1 0
BITMAP
0200
0600
0C00
0030
0020
C0C0
C080
C080
C080
C080
C080
C080
6180
7280
3C80
ENDCHAR
STARTCHAR 1EEA
ENCODING 7914
SWIDTH 668 0
DWIDTH 13 0
BBX 13 18 1 0
BITMAP
1800
0800
0400
0008
C078
C060
C060
C060
C060
C060
C060
C060
C060
C060
4060
60C0
39C0
1F80
ENDCHAR
STARTCHAR 1EEB
ENCODING 7915
SWIDTH 565 0
DWIDTH 11 0
BBX 12 15 1 0
BITMAP
3000
1000
1800
0030
0020
C0C0
C080
C080
C080
C080
C080
C080
6180
7280
3C80
ENDCHAR
STARTCHAR 1EEC
ENCODING 7916
SWIDTH 668 0
DWIDTH 13 0
BBX 13 19 1 0
BITMAP
0400
0B00
0300
0600
0008
C078
C060
C060
C060
C060
C060
C060
C060
C060
C060
4060
60C0
39C0
1F80
ENDCHAR
STARTCHAR 1EED
ENCODING 7917
SWIDTH 565 0
DWIDTH 11 0
BBX 12 15 1 0
BITMAP
1C00
0600
0400
0830
0020
C0C0
C080
C080
C080
C080
C080
C080
6180
7280
3C80
ENDCHAR
STARTCHAR 1EEE
ENCODING 7918
SWIDTH 668 0
DWIDTH 13 0
BBX 13 18 1 0
BITMAP
0900
1F00
1200
0008
C078
C060
C060
C060
C060
C060
C060
C060
C060
C060
4060
60C0
39C0
1F80
ENDCHAR
STARTCHAR 1EEF
ENCODING 7919
SWIDTH 565 0
DWIDTH 11 0
BBX 12 14 1 0
BITMAP
3900
2600
0030
0020
C0C0
C080
C080
C080
C080
C080
C080
6180
7280
3C80
ENDCHAR
STARTCHAR 1EF0
ENCODING 7920
SWIDTH 668 0
DWIDTH 13 0
BBX 13 19 1 -4
BITMAP
0008
C078
C060
C060
C060
C060
C060
C060
C060
C060
C060
4060
60C0
39C0
1F80
0000
0000
0400
0600
ENDCHAR
STARTCHAR 1EF1
ENCODING 7921
SWIDTH 565 0
DWIDTH 11 0
BBX 12 16 1 -4
BITMAP
0030
0020
C0C0
C080
C080
C080
C080
C080
C080
6180
7280
3C80
0000
0000
0800
0C00
ENDCHAR
STARTCHAR 1EF2
ENCODING 7922
SWIDTH 565 0
DWIDTH 11 0
BBX 10 18 1 0
BITMAP
3000
1800
0800
0000
C0C0
C0C0
6180
6180
3300
3300
1E00
1E00
0C00
0C00
0C00
0C00
0C00
0C00
ENDCHAR
STARTCHAR 1EF3
ENCODING 7923
SWIDTH 514 0
DWIDTH 10 0
BBX 9 19 1 -4
BITMAP
2000
3000
1000
0000
0000
C180
C100
4300
6200
6600
2600
3400
1C00
1800
1800
1800
3000
3000
E000
ENDCHAR
STARTCHAR 1EF4
ENCODING 7924
SWIDTH 565 0
DWIDTH 11 0
BBX 10 18 1 -4
BITMAP
C0C0
C0C0
6180
6180
3300
3300
1E00
1E00
0C00
0C00
0C00
0C00
0C00
0C00
0000
0000
0C00
0C00
ENDCHAR
STARTCHAR 1EF5
ENCODING 7925
SWIDTH 514 0
DWIDTH 10 0
BBX 9 14 1 -4
BITMAP
C180
C100
4300
6200
6600
2600
3400
1C00
1800
1800
1800
3000
3300
E300
ENDCHAR
STARTCHAR 1EF6
ENCODING 7926
SWIDTH 565 0
DWIDTH 11 0
BBX 10 19 1 0
BITMAP
0C00
1E00
0200
0400
0000
C0C0
C0C0
6180
6180
3300
3300
1E00
1E00
0C00
0C00
0C00
0C00
0C00
0C00
ENDCHAR
STARTCHAR 1EF7
ENCODING 7927
SWIDTH 514 0
DWIDTH 10 0
BBX 9 19 1 -4
BITMAP
1C00
0400
0C00
0000
0000
C180
C100
4300
6200
6600
2600
3400
1C00
1800
1800
1800
3000
3000
E000
ENDCHAR
STARTCHAR 1EF8
ENCODING 7928
SWIDTH 565 0
DWIDTH 11 0
BBX 10 18 1 0
BITMAP
1100
3F00
2200
0000
C0C0
C0C0
6180
6180
3300
3300
1E00
1E00
0C00
0C00
0C00
0C00
0C00
0C00
ENDCHAR
STARTCHAR 1EF9
ENCODING 7929
SWIDTH 514 0
DWIDTH 10 0
BBX 9 18 1 -4
BITMAP
3A00
4C00
0000
0000
C180
C100
4300
6200
6600
2600
3400
1C00
1800
1800
1800
3000
3000
E000
ENDCHAR
STARTCHAR 2013
ENCODING 8211
SWIDTH 617 0
DWIDTH 12 0
BBX 8 2 2 5
BITMAP
FF
FF
ENDCHAR
STARTCHAR 2014
ENCODING 8212
SWIDTH 720 0
DWIDTH 14 0
BBX 11 2 2 5
BITMAP
FFE0
FFE0
ENDCHAR
STARTCHAR 2018
ENCODING 8216
SWIDTH 257 0
DWIDTH 5 0
BBX 2 5 2 10
BITMAP
40
80
80
C0
C0
ENDCHAR
STARTCHAR 2019
ENCODING 8217
SWIDTH 257 0
DWIDTH 5 0
BBX 2 5 2 9
BITMAP
C0
C0
40
40
80
ENDCHAR
STARTCHAR 201A
ENCODING 8218
SWIDTH 257 0
DWIDTH 5 0
BBX 3 5 1 -3
BITMAP
60
E0
20
20
40
ENDCHAR
STARTCHAR 201C
ENCODING 8220
SWIDTH 462 0
DWIDTH 9 0
BBX 6 5 2 10
BITMAP
44
88
88
CC
CC
ENDCHAR
STARTCHAR 201D
ENCODING 8221
SWIDTH 514 0
DWIDTH 10 0
BBX 6 5 2 9
BITMAP
CC
CC
44
44
88
ENDCHAR
STARTCHAR 201E
ENCODING 8222
SWIDTH 514 0
DWIDTH 10 0
BBX 6 5 2 -3
BITMAP
CC
CC
44
44
88
ENDCHAR
STARTCHAR 2020
ENCODING 8224
SWIDTH 565 0
DWIDTH 11 0
BBX 7 19 2 -5
BITMAP
10
10
10
10
FE
10
10
10
10
10
10
10
10
10
10
10
10
10
10
ENDCHAR
STARTCHAR 2021
ENCODING 8225
SWIDTH 565 0
DWIDTH 11 0
BBX 7 19 2 -5
BITMAP
10
10
10
10
FE
10
10
10
10
10
10
10
10
10
FE
10
10
10
10
ENDCHAR
STARTCHAR 2022
ENCODING 8226
SWIDTH 360 0
DWIDTH 7 0
BBX 4 4 1 5
BITMAP
70
F0
70
20
ENDCHAR
STARTCHAR 2026
ENCODING 8230
SWIDTH 771 0
DWIDTH 15 0
BBX 12 2 2 0
BITMAP
C670
C630
ENDCHAR
STARTCHAR 2030
ENCODING 8240
SWIDTH 1182 0
DWIDTH 23 0
BBX 21 14 1 0
BITMAP
702000
906000
884000
88C000
908000
718000
010000
030000
020000
063C78
0464C8
0C64C8
0864C8
183C78
ENDCHAR
STARTCHAR 2039
ENCODING 8249
SWIDTH 360 0
DWIDTH 7 0
BBX 5 8 1 2
BITMAP
18
30
60
C0
C0
60
30
18
ENDCHAR
STARTCHAR 203A
ENCODING 8250
SWIDTH 360 0
DWIDTH 7 0
BBX 5 8 1 2
BITMAP
C0
60
30
18
18
30
60
C0
ENDCHAR
STARTCHAR 2044
ENCODING 8260
SWIDTH 462 0
DWIDTH 9 0
BBX 9 14 0 0
BITMAP
0080
0180
0100
0300
0600
0400
0C00
0800
1800
3000
2000
6000
4000
C000
ENDCHAR
STARTCHAR 2070
ENCODING 8304
SWIDTH 308 0
DWIDTH 6 0
BBX 5 8 1 7
BITMAP
70
90
88
88
88
88
90
60
ENDCHAR
STARTCHAR 2074
ENCODING 8308
SWIDTH 308 0
DWIDTH 6 0
BBX 5 8 1 7
BITMAP
30
30
50
90
90
F8
10
10
ENDCHAR
STARTCHAR 2075
ENCODING 8309
SWIDTH 308 0
DWIDTH 6 0
BBX 5 7 1 7
BITMAP
F0
80
80
F0
18
18
F0
ENDCHAR
STARTCHAR 2076
ENCODING 8310
SWIDTH 308 0
DWIDTH 6 0
BBX 5 8 1 7
BITMAP
20
40
80
F0
90
88
90
60
ENDCHAR
STARTCHAR 2077
ENCODING 8311
SWIDTH 257 0
DWIDTH 5 0
BBX 4 8 1 7
BITMAP
F0
10
10
20
20
40
40
C0
ENDCHAR
STARTCHAR 2078
ENCODING 8312
SWIDTH 308 0
DWIDTH 6 0
BBX 5 8 1 7
BITMAP
70
90
98
F0
90
88
98
60
ENDCHAR
STARTCHAR 2079
ENCODING 8313
SWIDTH 308 0
DWIDTH 6 0
BBX 5 8 1 7
BITMAP
60
90
88
98
F0
10
20
40
ENDCHAR
STARTCHAR 2080
ENCODING 8320
SWIDTH 308 0
DWIDTH 6 0
BBX 5 8 1 -5
BITMAP
60
D0
88
88
88
88
90
70
ENDCHAR
STARTCHAR 2081
ENCODING 8321
SWIDTH 257 0
DWIDTH 5 0
BBX 3 7 1 -5
BITMAP
C0
C0
40
40
40
40
E0
ENDCHAR
STARTCHAR 2082
ENCODING 8322
SWIDTH 257 0
DWIDTH 5 0
BBX 4 7 1 -4
BITMAP
F0
90
10
20
40
80
F0
ENDCHAR
STARTCHAR 2083
ENCODING 8323
SWIDTH 308 0
DWIDTH 6 0
BBX 5 8 1 -5
BITMAP
60
90
18
10
30
08
90
70
ENDCHAR
STARTCHAR 2084
ENCODING 8324
SWIDTH 308 0
DWIDTH 6 0
BBX 5 7 1 -5
BITMAP
30
50
50
90
F8
10
10
ENDCHAR
STARTCHAR 2085
ENCODING 8325
SWIDTH 308 0
DWIDTH 6 0
BBX 5 7 1 -5
BITMAP
F0
80
F0
90
18
90
70
ENDCHAR
STARTCHAR 2086
ENCODING 8326
SWIDTH 308 0
DWIDTH 6 0
BBX 5 7 1 -5
BITMAP
60
40
F0
90
88
90
60
ENDCHAR
STARTCHAR 2087
ENCODING 8327
SWIDTH 257 0
DWIDTH 5 0
BBX 4 7 1 -5
BITMAP
F0
10
20
20
60
40
40
ENDCHAR
STARTCHAR 2088
ENCODING 8328
SWIDTH 308 0
DWIDTH 6 0
BBX 5 8 1 -5
BITMAP
60
90
98
90
F0
88
98
F0
ENDCHAR
STARTCHAR 2089
ENCODING 8329
SWIDTH 308 0
DWIDTH 6 0
BBX 5 7 1 -4
BITMAP
F0
98
98
F0
10
20
60
ENDCHAR
STARTCHAR 20AB
ENCODING 8363
SWIDTH 565 0
DWIDTH 11 0
BBX 10 16 1 0
BITMAP
0180
07C0
07C0
0180
7F80
E380
C180
8180
8180
C180
C180
7F80
3D80
0000
0000
7F80
ENDCHAR
STARTCHAR 20AC
ENCODING 8364
SWIDTH 668 0
DWIDTH 13 0
BBX 13 14 0 0
BITMAP
0100
0FE0
1C70
1830
3018
FF00
3000
3000
FF00
3000
1018
1830
0EE0
07C0
ENDCHAR
STARTCHAR 2122
ENCODING 8482
SWIDTH 360 0
DWIDTH 7 0
BBX 6 4 1 10
BITMAP
F4
BC
AC
A4
ENDCHAR
STARTCHAR 215B
ENCODING 8539
SWIDTH 874 0
DWIDTH 17 0
BBX 16 14 1 0
BITMAP
4010
C030
C020
4060
4040
4080
F180
010E
0312
0212
060E
0C13
0813
181E
ENDCHAR
STARTCHAR 215C
ENCODING 8540
SWIDTH 822 0
DWIDTH 16 0
BBX 15 14 1 0
BITMAP
6010
D030
1860
3040
10C0
9880
F180
031C
0226
0626
041C
0C22
1822
103C
ENDCHAR
STARTCHAR 215D
ENCODING 8541
SWIDTH 874 0
DWIDTH 17 0
BBX 16 14 1 0
BITMAP
F010
8030
8020
F060
18C0
9080
F180
010E
0312
0612
040E
0C13
0813
181E
ENDCHAR
STARTCHAR 215E
ENCODING 8542
SWIDTH 874 0
DWIDTH 17 0
BBX 16 14 1 0
BITMAP
F010
F030
1020
3060
20C0
6080
4180
010E
0313
0613
040E
0C11
0813
181E
ENDCHAR
STARTCHAR 2212
ENCODING 8722
SWIDTH 565 0
DWIDTH 11 0
BBX 8 2 2 5
BITMAP
FF
FF
ENDCHAR
STARTCHAR 2215
ENCODING 8725
SWIDTH 462 0
DWIDTH 9 0
BBX 8 14 1 0
BITMAP
01
03
02
06
04
0C
08
18
10
30
20
60
40
C0
ENDCHAR
STARTCHAR 2248
ENCODING 8776
SWIDTH 514 0
DWIDTH 10 0
BBX 7 6 2 3
BITMAP
F6
8C
00
00
F2
9C
ENDCHAR
STARTCHAR 2260
ENCODING 8800
SWIDTH 720 0
DWIDTH 14 0
BBX 10 12 2 0
BITMAP
0180
0100
0300
FFC0
0600
0C00
0800
FFC0
FFC0
3000
2000
6000
ENDCHAR
STARTCHAR 2264
ENCODING 8804
SWIDTH 565 0
DWIDTH 11 0
BBX 8 12 2 0
BITMAP
01
07
1C
30
C0
70
1C
07
01
00
00
FF
ENDCHAR
STARTCHAR 2265
ENCODING 8805
SWIDTH 617 0
DWIDTH 12 0
BBX 8 11 2 1
BITMAP
60
38
0E
03
0E
38
60
40
00
00
FF
ENDCHAR
ENDFONT
